<svg xmlns="http://www.w3.org/2000/svg" xmlns:xlink="http://www.w3.org/1999/xlink" width="127" zoomAndPan="magnify" viewBox="0 0 95.25 30.000001" height="40" preserveAspectRatio="xMidYMid meet" version="1.0"><defs><clipPath id="671a187bd4"><path d="M 1.171875 3.816406 L 89.886719 3.816406 L 89.886719 29.03125 L 1.171875 29.03125 Z M 1.171875 3.816406 " clip-rule="nonzero"/></clipPath><clipPath id="23ce17f255"><path d="M 89 10 L 90.449219 10 L 90.449219 12 L 89 12 Z M 89 10 " clip-rule="nonzero"/></clipPath></defs><g clip-path="url(#671a187bd4)"><path fill="#d0ab17" d="M 58.492188 27.542969 C 58.609375 27.558594 58.71875 27.609375 58.832031 27.648438 C 58.785156 27.742188 58.734375 27.910156 58.695312 27.910156 C 58.585938 27.902344 58.480469 27.816406 58.371094 27.765625 C 58.421875 27.664062 58.464844 27.539062 58.492188 27.542969 Z M 51.636719 27.761719 C 51.722656 27.761719 51.8125 27.949219 51.898438 28.050781 C 51.769531 28.140625 51.648438 28.265625 51.507812 28.304688 C 51.445312 28.320312 51.34375 28.160156 51.183594 28.011719 C 51.375 27.898438 51.507812 27.765625 51.636719 27.761719 Z M 67.152344 27.035156 C 67 27.132812 66.839844 27.320312 66.699219 27.304688 C 66.554688 27.289062 66.429688 27.074219 66.296875 26.949219 C 66.40625 26.847656 66.511719 26.746094 66.652344 26.617188 C 66.851562 26.78125 67.003906 26.910156 67.152344 27.035156 Z M 89.84375 10.574219 C 89.070312 9.980469 89.191406 9.066406 89.265625 8.265625 C 89.339844 7.449219 89.347656 6.828125 88.488281 6.550781 C 88.371094 6.511719 88.332031 6.160156 88.273438 5.945312 C 88.242188 5.832031 89.03125 5.835938 88.328125 5.609375 C 87.519531 5.351562 86.644531 5.261719 85.886719 4.890625 C 85.011719 4.457031 84.132812 4.28125 83.1875 4.253906 C 81.332031 4.195312 79.472656 4.011719 77.617188 4.015625 C 76.179688 4.015625 74.691406 3.433594 73.300781 4.320312 C 73.246094 4.355469 73.121094 4.355469 73.089844 4.316406 C 72.515625 3.609375 71.746094 3.855469 71.058594 3.863281 C 66.234375 3.902344 61.410156 4.003906 56.589844 4.035156 C 54.179688 4.050781 51.773438 3.9375 49.363281 3.925781 C 46.863281 3.917969 44.363281 3.953125 41.867188 3.984375 C 40.050781 4.007812 38.21875 4.242188 36.425781 4.050781 C 33.503906 3.738281 30.6875 4.4375 27.832031 4.753906 C 25.894531 4.964844 23.972656 5.347656 22.035156 5.511719 C 19.375 5.734375 16.699219 5.765625 14.039062 5.996094 C 12.035156 6.167969 10.019531 6.402344 8.292969 7.742188 C 7.570312 8.300781 6.886719 8.808594 6.414062 9.714844 C 6.089844 10.332031 6.015625 11.140625 5.367188 11.609375 C 5.070312 11.828125 4.726562 12.503906 4.835938 12.75 C 5.257812 13.714844 4.535156 14.117188 4.214844 14.738281 C 4.0625 15.039062 3.972656 15.417969 3.972656 15.761719 C 3.972656 16.335938 3.914062 16.84375 3.507812 17.265625 C 3.371094 17.410156 3.199219 17.671875 3.238281 17.832031 C 3.476562 18.890625 2.695312 19.492188 2.277344 20.183594 C 1.605469 21.308594 0.96875 22.347656 1.269531 23.78125 C 1.351562 24.160156 1.226562 24.59375 1.1875 25 C 1.0625 26.238281 1.882812 27.433594 2.992188 27.667969 C 3.363281 27.746094 3.710938 27.941406 4.078125 28.035156 C 6.632812 28.675781 9.164062 29.535156 11.753906 29.871094 C 14.855469 30.273438 18.007812 30.234375 21.140625 30.363281 C 21.941406 30.394531 22.746094 30.347656 23.550781 30.292969 C 25.40625 30.171875 27.257812 29.992188 29.113281 29.890625 C 31.902344 29.742188 34.734375 29.769531 37.433594 28.960938 C 39.210938 28.429688 40.941406 28.59375 42.695312 28.625 C 43.832031 28.644531 44.972656 28.898438 46.105469 28.867188 C 47.273438 28.832031 48.441406 28.480469 49.570312 29.113281 C 49.707031 29.1875 49.90625 29.144531 50.074219 29.144531 C 52.5625 29.101562 55.050781 29.058594 57.539062 29.007812 C 57.75 29.003906 57.957031 28.953125 58.167969 28.933594 C 59.511719 28.808594 60.859375 28.726562 62.199219 28.546875 C 62.796875 28.46875 63.375 28.195312 63.964844 28.011719 C 64.078125 26.601562 64.359375 27.613281 64.695312 27.914062 C 64.921875 28.121094 65.304688 28.222656 65.613281 28.214844 C 66.539062 28.1875 67.464844 28.050781 68.390625 28.011719 C 69.253906 27.972656 70.066406 27.898438 70.691406 27.105469 C 70.882812 26.859375 71.277344 26.777344 71.589844 26.667969 C 71.910156 26.554688 72.300781 26.585938 72.5625 26.398438 C 73.21875 25.933594 73.859375 25.78125 74.605469 26.109375 C 74.746094 26.171875 74.972656 26.007812 75.164062 25.949219 C 75.101562 25.796875 75.074219 25.605469 74.96875 25.503906 C 74.683594 25.226562 74.6875 25.019531 75.082031 24.996094 C 75.699219 24.953125 75.960938 24.640625 76.070312 23.984375 C 76.113281 23.707031 76.46875 23.402344 76.746094 23.285156 C 77.253906 23.070312 77.8125 22.84375 78.339844 22.878906 C 79.421875 22.949219 80.039062 22.160156 80.757812 21.558594 C 81.886719 20.605469 83 19.65625 84.582031 20.136719 C 84.609375 20.144531 84.675781 20.023438 84.765625 19.90625 C 84.355469 19.703125 83.960938 19.507812 83.410156 19.238281 C 83.667969 19.035156 83.816406 18.941406 83.9375 18.816406 C 84.054688 18.691406 84.183594 18.550781 84.234375 18.390625 C 84.5 17.566406 84.835938 17.230469 85.539062 17.316406 C 85.945312 17.367188 86.167969 17.238281 86.382812 16.898438 C 86.628906 16.515625 86.921875 16.167969 87.234375 15.753906 C 87.058594 15.671875 86.851562 15.613281 86.6875 15.488281 C 86.460938 15.3125 86.273438 15.089844 86.066406 14.886719 C 86.367188 14.773438 86.664062 14.574219 86.964844 14.566406 C 87.550781 14.550781 88.140625 14.652344 88.726562 14.679688 C 88.832031 14.6875 89.035156 14.578125 89.039062 14.515625 C 89.046875 14.363281 89.003906 14.148438 88.902344 14.0625 C 88.6875 13.871094 88.332031 13.847656 88.496094 13.367188 C 88.960938 12.027344 88.949219 12.019531 87.589844 12.234375 C 87.328125 12.570312 87.109375 12.976562 86.789062 13.222656 C 86.597656 13.371094 86.242188 13.273438 85.960938 13.285156 C 86.152344 13.105469 86.375 12.949219 86.519531 12.734375 C 86.804688 12.304688 87.175781 12.203125 87.625 12.269531 C 87.96875 11.074219 88.882812 10.746094 89.878906 10.539062 L 89.84375 10.574219 " fill-opacity="1" fill-rule="nonzero"/></g><path fill="#d0ab17" d="M 82.472656 21.160156 C 82.734375 21.042969 82.890625 20.90625 82.996094 20.945312 C 83.15625 21.003906 83.28125 21.183594 83.417969 21.3125 C 83.25 21.390625 83.082031 21.515625 82.910156 21.519531 C 82.804688 21.523438 82.691406 21.347656 82.472656 21.160156 " fill-opacity="1" fill-rule="nonzero"/><g clip-path="url(#23ce17f255)"><path fill="#d0ab17" d="M 89.84375 10.574219 C 90.046875 10.699219 90.246094 10.824219 90.449219 10.949219 C 90.402344 11 90.355469 11.046875 90.3125 11.097656 C 90.167969 10.914062 90.023438 10.726562 89.878906 10.539062 C 89.878906 10.539062 89.84375 10.574219 89.84375 10.574219 " fill-opacity="1" fill-rule="nonzero"/></g></svg>