<svg width="96" height="18" viewBox="0 0 96 18" fill="none" xmlns="http://www.w3.org/2000/svg">
<path d="M17.0589 8.2851L13.5412 11.3205L14.6129 15.8598C14.6721 16.1062 14.6568 16.3647 14.5692 16.6024C14.4815 16.8402 14.3254 17.0467 14.1204 17.1957C13.9155 17.3448 13.671 17.4298 13.4177 17.4399C13.1645 17.4501 12.914 17.385 12.6978 17.2528L8.75016 14.8233L4.8002 17.2528C4.58401 17.3842 4.33376 17.4487 4.08099 17.4382C3.82821 17.4276 3.5842 17.3425 3.37969 17.1936C3.17518 17.0447 3.01931 16.8386 2.9317 16.6012C2.84409 16.3639 2.82867 16.1059 2.88737 15.8598L3.963 11.3205L0.445328 8.2851C0.254043 8.11978 0.115702 7.90176 0.0475825 7.65829C-0.0205372 7.41481 -0.0154168 7.15666 0.062304 6.91607C0.140025 6.67549 0.286902 6.46313 0.484592 6.30553C0.682282 6.14792 0.922023 6.05205 1.17388 6.02988L5.78593 5.65779L7.56509 1.35216C7.66139 1.11751 7.8253 0.916788 8.03597 0.775526C8.24664 0.634264 8.49456 0.558838 8.7482 0.558838C9.00185 0.558838 9.24977 0.634264 9.46044 0.775526C9.67111 0.916788 9.83501 1.11751 9.93131 1.35216L11.7097 5.65779L16.3217 6.02988C16.5741 6.05122 16.8145 6.14656 17.013 6.30395C17.2114 6.46134 17.3589 6.67378 17.4371 6.91466C17.5153 7.15553 17.5207 7.41413 17.4526 7.65805C17.3845 7.90197 17.2459 8.12037 17.0542 8.28588L17.0589 8.2851Z" fill="#18273A"/>
<path d="M36.5589 8.2851L33.0412 11.3205L34.1129 15.8598C34.1721 16.1062 34.1568 16.3647 34.0692 16.6024C33.9815 16.8402 33.8254 17.0467 33.6204 17.1957C33.4155 17.3448 33.171 17.4298 32.9177 17.4399C32.6645 17.4501 32.414 17.385 32.1978 17.2528L28.2502 14.8233L24.3002 17.2528C24.084 17.3842 23.8338 17.4487 23.581 17.4382C23.3282 17.4276 23.0842 17.3425 22.8797 17.1936C22.6752 17.0447 22.5193 16.8386 22.4317 16.6012C22.3441 16.3639 22.3287 16.1059 22.3874 15.8598L23.463 11.3205L19.9453 8.2851C19.754 8.11978 19.6157 7.90176 19.5476 7.65829C19.4795 7.41481 19.4846 7.15666 19.5623 6.91607C19.64 6.67549 19.7869 6.46313 19.9846 6.30553C20.1823 6.14792 20.422 6.05205 20.6739 6.02988L25.2859 5.65779L27.0651 1.35216C27.1614 1.11751 27.3253 0.916788 27.536 0.775526C27.7466 0.634264 27.9946 0.558838 28.2482 0.558838C28.5018 0.558838 28.7498 0.634264 28.9604 0.775526C29.1711 0.916788 29.335 1.11751 29.4313 1.35216L31.2097 5.65779L35.8217 6.02988C36.0741 6.05122 36.3145 6.14656 36.513 6.30395C36.7114 6.46134 36.8589 6.67378 36.9371 6.91466C37.0153 7.15553 37.0207 7.41413 36.9526 7.65805C36.8845 7.90197 36.7459 8.12037 36.5542 8.28588L36.5589 8.2851Z" fill="#18273A"/>
<path d="M56.0589 8.2851L52.5412 11.3205L53.6129 15.8598C53.6721 16.1062 53.6568 16.3647 53.5692 16.6024C53.4815 16.8402 53.3254 17.0467 53.1204 17.1957C52.9155 17.3448 52.671 17.4298 52.4177 17.4399C52.1645 17.4501 51.914 17.385 51.6978 17.2528L47.7502 14.8233L43.8002 17.2528C43.584 17.3842 43.3338 17.4487 43.081 17.4382C42.8282 17.4276 42.5842 17.3425 42.3797 17.1936C42.1752 17.0447 42.0193 16.8386 41.9317 16.6012C41.8441 16.3639 41.8287 16.1059 41.8874 15.8598L42.963 11.3205L39.4453 8.2851C39.254 8.11978 39.1157 7.90176 39.0476 7.65829C38.9795 7.41481 38.9846 7.15666 39.0623 6.91607C39.14 6.67549 39.2869 6.46313 39.4846 6.30553C39.6823 6.14792 39.922 6.05205 40.1739 6.02988L44.7859 5.65779L46.5651 1.35216C46.6614 1.11751 46.8253 0.916788 47.036 0.775526C47.2466 0.634264 47.4946 0.558838 47.7482 0.558838C48.0018 0.558838 48.2498 0.634264 48.4604 0.775526C48.6711 0.916788 48.835 1.11751 48.9313 1.35216L50.7097 5.65779L55.3217 6.02988C55.5741 6.05122 55.8145 6.14656 56.013 6.30395C56.2114 6.46134 56.3589 6.67378 56.4371 6.91466C56.5153 7.15553 56.5207 7.41413 56.4526 7.65805C56.3845 7.90197 56.2459 8.12037 56.0542 8.28588L56.0589 8.2851Z" fill="#18273A"/>
<path d="M75.5589 8.2851L72.0412 11.3205L73.1129 15.8598C73.1721 16.1062 73.1568 16.3647 73.0692 16.6024C72.9815 16.8402 72.8254 17.0467 72.6204 17.1957C72.4155 17.3448 72.171 17.4298 71.9177 17.4399C71.6645 17.4501 71.414 17.385 71.1978 17.2528L67.2502 14.8233L63.3002 17.2528C63.084 17.3842 62.8338 17.4487 62.581 17.4382C62.3282 17.4276 62.0842 17.3425 61.8797 17.1936C61.6752 17.0447 61.5193 16.8386 61.4317 16.6012C61.3441 16.3639 61.3287 16.1059 61.3874 15.8598L62.463 11.3205L58.9453 8.2851C58.754 8.11978 58.6157 7.90176 58.5476 7.65829C58.4795 7.41481 58.4846 7.15666 58.5623 6.91607C58.64 6.67549 58.7869 6.46313 58.9846 6.30553C59.1823 6.14792 59.422 6.05205 59.6739 6.02988L64.2859 5.65779L66.0651 1.35216C66.1614 1.11751 66.3253 0.916788 66.536 0.775526C66.7466 0.634264 66.9946 0.558838 67.2482 0.558838C67.5018 0.558838 67.7498 0.634264 67.9604 0.775526C68.1711 0.916788 68.335 1.11751 68.4313 1.35216L70.2097 5.65779L74.8217 6.02988C75.0741 6.05122 75.3145 6.14656 75.513 6.30395C75.7114 6.46134 75.8589 6.67378 75.9371 6.91466C76.0153 7.15553 76.0207 7.41413 75.9526 7.65805C75.8845 7.90197 75.7459 8.12037 75.5542 8.28588L75.5589 8.2851Z" fill="#18273A"/>
<path d="M95.0589 8.2851L91.5412 11.3205L92.6129 15.8598C92.6721 16.1062 92.6568 16.3647 92.5692 16.6024C92.4815 16.8402 92.3254 17.0467 92.1204 17.1957C91.9155 17.3448 91.671 17.4298 91.4177 17.4399C91.1645 17.4501 90.914 17.385 90.6978 17.2528L86.7502 14.8233L82.8002 17.2528C82.584 17.3842 82.3338 17.4487 82.081 17.4382C81.8282 17.4276 81.5842 17.3425 81.3797 17.1936C81.1752 17.0447 81.0193 16.8386 80.9317 16.6012C80.8441 16.3639 80.8287 16.1059 80.8874 15.8598L81.963 11.3205L78.4453 8.2851C78.254 8.11978 78.1157 7.90176 78.0476 7.65829C77.9795 7.41481 77.9846 7.15666 78.0623 6.91607C78.14 6.67549 78.2869 6.46313 78.4846 6.30553C78.6823 6.14792 78.922 6.05205 79.1739 6.02988L83.7859 5.65779L85.5651 1.35216C85.6614 1.11751 85.8253 0.916788 86.036 0.775526C86.2466 0.634264 86.4946 0.558838 86.7482 0.558838C87.0018 0.558838 87.2498 0.634264 87.4604 0.775526C87.6711 0.916788 87.835 1.11751 87.9313 1.35216L89.7097 5.65779L94.3217 6.02988C94.5741 6.05122 94.8145 6.14656 95.013 6.30395C95.2114 6.46134 95.3589 6.67378 95.4371 6.91466C95.5153 7.15553 95.5207 7.41413 95.4526 7.65805C95.3845 7.90197 95.2459 8.12037 95.0542 8.28588L95.0589 8.2851Z" fill="#18273A"/>
</svg>
