<svg width="32" height="33" viewBox="0 0 32 33" fill="none" xmlns="http://www.w3.org/2000/svg">
<g clip-path="url(#clip0_275_1056)">
<path d="M31.4667 16.2562C31.4667 25.1266 24.0053 32.2493 15.0144 31.6925C7.31092 31.2152 1.04105 24.9453 0.564254 17.2418C0.00692064 8.25088 7.12959 0.789551 16 0.789551C18.4363 0.789551 20.7429 1.35168 22.7947 2.35808C23.3445 2.62795 23.5461 3.31275 23.2427 3.84502L23.2405 3.84875C22.96 4.34048 22.3477 4.52342 21.84 4.27328C19.8037 3.27062 17.4757 2.78262 15.0187 2.95808C8.56532 3.41835 3.29492 8.59435 2.72052 15.0386C2.00585 23.0594 8.43359 29.7917 16.3541 29.5848C23.1371 29.4077 28.7989 24.0285 29.2955 17.2616C29.4245 15.5037 29.2128 13.8018 28.7093 12.2328C28.5499 11.7352 28.7819 11.1981 29.2491 10.9645C29.8325 10.6728 30.5477 10.9645 30.7456 11.5858C31.2139 13.0584 31.4667 14.6274 31.4667 16.2562Z" fill="#FFDD99"/>
<path d="M8.21867 12.2413L16.6528 23.653C17.2896 24.5149 18.5856 24.4402 19.1227 23.5111L31.3104 2.41354C31.9451 1.31488 30.4971 0.210342 29.6336 1.13514L16.936 14.7362L9.56853 10.6583C8.5728 10.1074 7.53813 11.3202 8.21867 12.2413Z" fill="#FFA900"/>
</g>
<defs>
<clipPath id="clip0_275_1056">
<rect width="32" height="32" fill="white" transform="translate(0 0.256104)"/>
</clipPath>
</defs>
</svg>
