<?xml version="1.0" encoding="UTF-8"?>
<svg version="1.1" xmlns="http://www.w3.org/2000/svg" width="512" height="512">
<path d="M0 0 C0.81939056 0.33809692 1.63878113 0.67619385 2.48300171 1.02453613 C4.26803982 1.76219262 6.05155629 2.50353967 7.83370972 3.24813843 C10.71250448 4.45091678 13.59504348 5.64427809 16.47875977 6.83520508 C19.57420894 8.11376527 22.66936569 9.39299649 25.76335144 10.6750946 C37.00977396 15.33494463 48.28348633 19.927218 59.55953979 24.51480103 C63.04532623 25.93309796 66.53065606 27.35251159 70.01586914 28.7722168 C83.40945317 34.2274356 96.80781276 39.67071777 110.21282959 45.09777832 C120.19917838 49.14098019 130.1795797 53.1985955 140.15625 57.265625 C141.3496701 57.75209503 142.54309021 58.23856506 143.77267456 58.73977661 C149.68740907 61.15101607 155.60176591 63.56317679 161.515625 65.9765625 C163.71874088 66.87502236 165.9218657 67.7734603 168.125 68.671875 C169.18405548 69.1043454 170.24311096 69.5368158 171.33425903 69.98239136 C176.40767029 72.05055766 181.48721011 74.09969433 186.58544922 76.10595703 C187.51675156 76.47342545 188.44805389 76.84089386 189.40757751 77.21949768 C191.14449151 77.90297669 192.88313892 78.58207319 194.62379456 79.25596619 C200.36901927 81.51745677 200.36901927 81.51745677 202.58984375 83.73828125 C202.83824074 86.02570355 202.83824074 86.02570355 202.83593941 88.95070076 C202.8399215 90.06240265 202.8439036 91.17410454 202.84800637 92.31949437 C202.84218068 93.55099024 202.836355 94.78248612 202.83035278 96.05130005 C202.83291606 98.0017178 202.83291606 98.0017178 202.83553112 99.99153793 C202.8400204 103.61276384 202.83197941 107.23387229 202.82197499 110.85508323 C202.81336544 114.75556173 202.81625888 118.65603322 202.81777954 122.55651855 C202.81882998 129.31837671 202.81253684 136.08019636 202.80130386 142.84204483 C202.78507327 152.61862563 202.77984336 162.39518776 202.77732788 172.17178057 C202.77294693 188.03233693 202.75962702 203.89287276 202.74072266 219.75341797 C202.72237418 235.16357317 202.70821263 250.5737228 202.69970703 265.98388672 C202.69918158 266.93322587 202.69865614 267.88256501 202.69811477 268.86067201 C202.69550476 273.62306537 202.69297733 278.38545876 202.69049096 283.14785218 C202.66974602 322.67800958 202.63450965 362.20814406 202.58984375 401.73828125 C203.65944336 401.71733398 204.72904297 401.69638672 205.83105469 401.67480469 C209.80422548 401.60233499 213.777338 401.55645662 217.75097656 401.51855469 C219.46982654 401.49845497 221.18860827 401.47117036 222.90722656 401.43652344 C225.37972864 401.38793091 227.85132585 401.3652969 230.32421875 401.34765625 C231.47443512 401.31668854 231.47443512 401.31668854 232.64788818 401.28509521 C236.22655175 401.28359448 238.18743955 401.43023199 241.07104492 403.63769531 C242.70435544 405.89665748 243.15772957 406.98074006 243.15234375 409.73828125 C243.17425781 410.39828125 243.19617188 411.05828125 243.21875 411.73828125 C242.20782655 414.95314341 240.39765148 415.94695125 237.58984375 417.73828125 C234.64841896 418.12294234 232.08601986 418.27642942 229.14865112 418.24164581 C228.29681629 418.24745958 227.44498147 418.25327334 226.56733346 418.25926328 C223.69938937 418.27391629 220.832294 418.25995331 217.96435547 418.24621582 C215.89294941 418.25082263 213.82154661 418.25717406 211.75015068 418.2651248 C206.04742196 418.28187134 200.3449599 418.27354751 194.64223003 418.26117992 C188.49627026 418.25215354 182.3503573 418.26608716 176.20440674 418.27709961 C164.85686238 418.29388484 153.50942711 418.29239289 142.16188544 418.28145374 C131.67950872 418.27139802 121.19716327 418.26876166 110.71478271 418.27354431 C110.01990595 418.27384985 109.32502919 418.27415539 108.60909556 418.27447019 C105.78848077 418.27571551 102.967866 418.27698911 100.14725124 418.27830925 C73.6788333 418.29054978 47.21046971 418.27944423 20.74206015 418.25792166 C-2.78201506 418.23893872 -26.30600367 418.24063721 -49.83007812 418.25976562 C-76.24957293 418.28117653 -102.66901969 418.28968174 -129.08852196 418.27731657 C-131.90404637 418.27603367 -134.71957079 418.27478231 -137.53509521 418.27354431 C-138.22836714 418.273228 -138.92163906 418.27291169 -139.63591923 418.2725858 C-150.11261898 418.26803275 -160.58928405 418.27336287 -171.065979 418.28346252 C-182.97650495 418.29488704 -194.88692858 418.29168108 -206.79745054 418.27033955 C-212.87801389 418.25980449 -218.95840115 418.25574916 -225.03896332 418.26893616 C-230.60028676 418.28081494 -236.16127016 418.27437211 -241.72256255 418.25302595 C-243.73930897 418.2485407 -245.75608385 418.25086893 -247.77281213 418.2605291 C-250.50527638 418.2726183 -253.23656187 418.26029442 -255.96896362 418.24164581 C-256.75978073 418.25101048 -257.55059783 418.26037514 -258.3653791 418.27002358 C-262.09872311 418.21877697 -264.21957279 417.85987001 -267.39842415 415.83182096 C-269.41015625 413.73828125 -269.41015625 413.73828125 -270.0390625 411.73828125 C-270.01714844 411.07828125 -269.99523437 410.41828125 -269.97265625 409.73828125 C-269.97394531 409.07828125 -269.97523438 408.41828125 -269.9765625 407.73828125 C-269.12546593 404.7330299 -267.8936155 403.63942392 -265.41015625 401.73828125 C-262.52050505 401.38918075 -260.02422915 401.27012505 -257.14453125 401.34765625 C-256.35113342 401.35331604 -255.5577356 401.35897583 -254.74029541 401.36480713 C-252.21296152 401.38714978 -249.6870596 401.43733949 -247.16015625 401.48828125 C-245.44403093 401.50834911 -243.72788333 401.52659938 -242.01171875 401.54296875 C-237.81064845 401.5870073 -233.6106449 401.65601799 -229.41015625 401.73828125 C-229.41205485 401.06654206 -229.41395345 400.39480287 -229.41590959 399.70270795 C-229.52771468 359.92101206 -229.61354581 320.13933638 -229.6654829 280.35751529 C-229.67173669 275.58461605 -229.67820828 270.81171712 -229.68481445 266.03881836 C-229.68612601 265.08858979 -229.68743756 264.13836123 -229.68878885 263.15933786 C-229.71056627 247.75804913 -229.75000061 232.35685339 -229.79592023 216.95561989 C-229.84261996 201.16142789 -229.87043789 185.3672847 -229.88059872 169.57302648 C-229.88747137 159.82112993 -229.90920493 150.06949615 -229.94973858 140.31768046 C-229.97609699 133.63735481 -229.98417298 126.95716569 -229.97766314 120.27679177 C-229.97444941 116.41810695 -229.97949608 112.55988239 -230.00618362 108.70127869 C-230.03486268 104.52439931 -230.0251434 100.34850931 -230.01142883 96.17155457 C-230.02599304 94.94297153 -230.04055725 93.7143885 -230.05556279 92.44857568 C-230.04560755 91.33488274 -230.03565231 90.2211898 -230.02539539 89.07374859 C-230.0282433 87.62644455 -230.0282433 87.62644455 -230.03114873 86.14990205 C-229.41015625 83.73828125 -229.41015625 83.73828125 -227.09423798 82.00302011 C-223.66635255 80.38780107 -220.20363597 78.89216187 -216.69140625 77.47265625 C-215.93445465 77.16295898 -215.17750305 76.85326172 -214.39761353 76.53417969 C-211.90339182 75.51491505 -209.4068137 74.50156331 -206.91015625 73.48828125 C-205.14293514 72.7675744 -203.37584738 72.04654047 -201.60888672 71.32519531 C-196.21172645 69.12359446 -190.81133394 66.93000449 -185.41015625 64.73828125 C-184.62225708 64.41843262 -183.83435791 64.09858398 -183.02258301 63.76904297 C-176.35778814 61.06357812 -169.6918854 58.36085688 -163.02416992 55.66259766 C-151.12963867 50.84813517 -139.2480433 46.00236142 -127.36935425 41.1489563 C-109.22041633 33.7336795 -91.06996046 26.322178 -72.8828125 19.00097656 C-64.79408458 15.74261184 -56.71729815 12.46059162 -48.66944885 9.10227966 C-44.79216577 7.48576147 -40.90995091 5.88128656 -37.02731323 4.27767944 C-35.17611599 3.50912531 -33.32735137 2.73468203 -31.48123169 1.95401001 C-28.92833326 0.87490276 -26.36777162 -0.18364329 -23.8046875 -1.23828125 C-23.0556012 -1.56126694 -22.30651489 -1.88425262 -21.534729 -2.21702576 C-13.59172725 -5.43531485 -7.55824019 -3.19122784 0 0 Z " fill="#685E67" transform="translate(269.41015625,49.26171875)"/>
<path d="M0 0 C0.81939056 0.33809692 1.63878113 0.67619385 2.48300171 1.02453613 C4.26803982 1.76219262 6.05155629 2.50353967 7.83370972 3.24813843 C10.71250448 4.45091678 13.59504348 5.64427809 16.47875977 6.83520508 C19.57420894 8.11376527 22.66936569 9.39299649 25.76335144 10.6750946 C37.00977396 15.33494463 48.28348633 19.927218 59.55953979 24.51480103 C63.04532623 25.93309796 66.53065606 27.35251159 70.01586914 28.7722168 C83.40945317 34.2274356 96.80781276 39.67071777 110.21282959 45.09777832 C120.19917838 49.14098019 130.1795797 53.1985955 140.15625 57.265625 C141.3496701 57.75209503 142.54309021 58.23856506 143.77267456 58.73977661 C149.68740907 61.15101607 155.60176591 63.56317679 161.515625 65.9765625 C163.71874088 66.87502236 165.9218657 67.7734603 168.125 68.671875 C169.18405548 69.1043454 170.24311096 69.5368158 171.33425903 69.98239136 C176.40767029 72.05055766 181.48721011 74.09969433 186.58544922 76.10595703 C187.51675156 76.47342545 188.44805389 76.84089386 189.40757751 77.21949768 C191.14449151 77.90297669 192.88313892 78.58207319 194.62379456 79.25596619 C200.36901927 81.51745677 200.36901927 81.51745677 202.58984375 83.73828125 C202.83593941 86.01463509 202.83593941 86.01463509 202.83035278 88.91409302 C202.83447678 90.55897705 202.83447678 90.55897705 202.83868408 92.23709106 C202.83149353 93.44549652 202.82430298 94.65390198 202.81689453 95.89892578 C202.81718658 97.16718201 202.81747864 98.43543823 202.81777954 99.74212646 C202.81835472 103.22542433 202.80657382 106.70858519 202.79263163 110.19185114 C202.78015171 113.83003201 202.77895594 117.46821582 202.77658081 121.10641479 C202.77035796 127.9983258 202.75393631 134.89017357 202.73388183 141.78205669 C202.71154781 149.62716861 202.7005357 157.47228351 202.69049096 165.31741929 C202.66957075 181.45774367 202.6343792 197.5980044 202.58984375 213.73828125 C201.17351893 213.27307171 199.75779377 212.80603634 198.34231567 212.33825684 C197.55386827 212.0783773 196.76542088 211.81849777 195.95308113 211.5507431 C192.36749182 210.31804657 188.88608186 208.86940998 185.39453125 207.39453125 C166.20001904 199.35145126 146.96183629 191.4271352 127.66015625 183.64453125 C125.5000394 182.77256493 123.33996437 181.90049501 121.17993164 181.02832031 C115.98371399 178.93045387 110.78699364 176.83383707 105.58984375 174.73828125 C105.58561181 175.44249899 105.58137987 176.14671673 105.57701969 176.8722744 C105.4738198 193.98902253 105.36519818 211.10572759 105.25050449 228.22240257 C105.19517147 236.49981639 105.14168935 244.77723453 105.0925293 253.0546875 C105.04968842 260.26734839 105.00341068 267.47997754 104.9529652 274.6925894 C104.92636348 278.51337604 104.90151039 282.33415638 104.88076973 286.15497971 C104.86120937 289.74838063 104.83706743 293.34172112 104.80935287 296.93506813 C104.79549671 298.88843883 104.78655093 300.84184241 104.77772522 302.79524231 C104.7679364 303.95073074 104.75814758 305.10621918 104.74806213 306.29672241 C104.73838331 307.8093847 104.73838331 307.8093847 104.72850895 309.35260582 C104.58984375 311.73828125 104.58984375 311.73828125 103.58984375 313.73828125 C98.8738583 313.11623409 94.75789053 311.87109986 90.33984375 310.11328125 C89.1178125 309.64664062 87.89578125 309.18 86.63671875 308.69921875 C83.2829271 306.54075284 82.98709494 305.62989834 82.06213379 301.91882324 C81.10045449 297.47879292 80.24785677 293.0224902 79.42578125 288.5546875 C79.22884674 287.49918198 79.03191223 286.44367645 78.82901001 285.35618591 C78.20448454 282.00495899 77.58459835 278.65289339 76.96484375 275.30078125 C76.5406712 273.02012524 76.11619531 270.73952563 75.69140625 268.45898438 C74.65403918 262.8860648 73.62047356 257.31245049 72.58984375 251.73828125 C70.93984375 251.40828125 69.28984375 251.07828125 67.58984375 250.73828125 C66.09631901 254.8092536 64.60300208 258.8803021 63.10986328 262.95141602 C62.60373307 264.33131889 62.09754976 265.71120228 61.59130859 267.09106445 C61.09951319 268.43157211 60.60809664 269.77221882 60.11706543 271.11300659 C59.63115837 272.43601301 59.14264175 273.75806399 58.65148926 275.07913208 C57.53887026 278.08204303 56.48019066 281.08470341 55.51367188 284.13818359 C55.19333984 285.13414551 54.87300781 286.13010742 54.54296875 287.15625 C54.28161133 288.02403076 54.02025391 288.89181152 53.75097656 289.78588867 C52.58984375 291.73828125 52.58984375 291.73828125 50.16015625 292.59838867 C46.57293819 292.79362765 44.48412692 291.54384639 41.33984375 289.86328125 C40.2828125 289.30898438 39.22578125 288.7546875 38.13671875 288.18359375 C35.58984375 286.73828125 35.58984375 286.73828125 34.58984375 285.73828125 C34.49340597 283.91600438 34.46797004 282.08994765 34.46958923 280.26512146 C34.46752724 278.48346588 34.46752724 278.48346588 34.46542358 276.66581726 C34.46901886 275.3509584 34.47261414 274.03609955 34.47631836 272.68139648 C34.47660023 271.29210411 34.4764425 269.90281158 34.47587585 268.51351929 C34.47558787 264.73062836 34.48148474 260.94776887 34.48844981 257.16488528 C34.4946832 253.21572448 34.49528714 249.26656303 34.49647522 245.31739807 C34.49958858 237.8340305 34.50780203 230.35067746 34.51782471 222.86731631 C34.5289857 214.34992392 34.53449626 205.83253085 34.53952014 197.31513298 C34.54998464 179.78950731 34.56758417 162.26389582 34.58984375 144.73828125 C33.82498154 144.59448532 33.06011932 144.45068939 32.27207947 144.30253601 C29.17347383 143.65069062 26.4142949 142.60769106 23.46875 141.4453125 C21.70398315 140.75042725 21.70398315 140.75042725 19.90356445 140.04150391 C19.29002106 139.7974884 18.67647766 139.5534729 18.04434204 139.30206299 C16.14024025 138.54597515 14.23293849 137.7984679 12.32495117 137.05224609 C4.89742993 134.13381232 -2.37509688 131.06987178 -9.453125 127.37109375 C-16.52877101 125.85688681 -25.25207011 131.20221603 -31.765625 133.8515625 C-32.76011658 134.25355362 -33.75460815 134.65554474 -34.77923584 135.06971741 C-38.05315666 136.39400548 -41.32542557 137.72232304 -44.59765625 139.05078125 C-46.91016599 139.98731884 -49.22274871 140.92367624 -51.53540039 141.85986328 C-70.42720219 149.51170981 -89.30407714 157.20041028 -108.17700195 164.89868164 C-120.60133843 169.96646079 -133.03115845 175.02017658 -145.47018433 180.05178833 C-156.6621373 184.57935284 -167.83728614 189.14049792 -178.97460938 193.80126953 C-188.16573866 197.64474559 -197.37039983 201.45515732 -206.58209229 205.24905396 C-208.37766572 205.98920548 -210.17271442 206.73063132 -211.96722412 207.47335815 C-214.48589677 208.51554023 -217.00637391 209.5532331 -219.52734375 210.58984375 C-220.67710693 211.06716194 -220.67710693 211.06716194 -221.85009766 211.55412292 C-227.18190703 213.73828125 -227.18190703 213.73828125 -229.41015625 213.73828125 C-229.52688298 196.84025992 -229.61509185 179.94236414 -229.66921711 163.0440321 C-229.69501481 155.19808169 -229.73019479 147.35238157 -229.78735352 139.5065918 C-229.83714111 132.6693365 -229.86943588 125.83226243 -229.88059872 118.99483091 C-229.88712554 115.37330625 -229.90249655 111.75230009 -229.93880653 108.13094139 C-229.978984 104.09120926 -229.98010872 100.05238232 -229.9777832 96.01245117 C-229.99575958 94.80764099 -230.01373596 93.60283081 -230.03225708 92.36151123 C-230.02538376 91.26354721 -230.01851044 90.16558319 -230.01142883 89.03434753 C-230.0160378 88.07844821 -230.02064676 87.12254889 -230.02539539 86.13768291 C-229.41015625 83.73828125 -229.41015625 83.73828125 -227.09511089 82.00548267 C-223.66757663 80.38781054 -220.20428049 78.89242236 -216.69140625 77.47265625 C-215.93445465 77.16295898 -215.17750305 76.85326172 -214.39761353 76.53417969 C-211.90339182 75.51491505 -209.4068137 74.50156331 -206.91015625 73.48828125 C-205.14293514 72.7675744 -203.37584738 72.04654047 -201.60888672 71.32519531 C-196.21172645 69.12359446 -190.81133394 66.93000449 -185.41015625 64.73828125 C-184.62225708 64.41843262 -183.83435791 64.09858398 -183.02258301 63.76904297 C-176.35778814 61.06357812 -169.6918854 58.36085688 -163.02416992 55.66259766 C-151.12963867 50.84813517 -139.2480433 46.00236142 -127.36935425 41.1489563 C-109.22041633 33.7336795 -91.06996046 26.322178 -72.8828125 19.00097656 C-64.79408458 15.74261184 -56.71729815 12.46059162 -48.66944885 9.10227966 C-44.79216577 7.48576147 -40.90995091 5.88128656 -37.02731323 4.27767944 C-35.17611599 3.50912531 -33.32735137 2.73468203 -31.48123169 1.95401001 C-28.92833326 0.87490276 -26.36777162 -0.18364329 -23.8046875 -1.23828125 C-23.0556012 -1.56126694 -22.30651489 -1.88425262 -21.534729 -2.21702576 C-13.59172725 -5.43531485 -7.55824019 -3.19122784 0 0 Z " fill="#FDD302" transform="translate(269.41015625,49.26171875)"/>
<path d="M0 0 C16.75616993 3.35123399 32.10882425 11.71744214 48 18 C48.33 64.53 48.66 111.06 49 159 C59.36021682 165.2981424 59.36021682 165.2981424 65 165 C65.69474703 163.11984085 66.38920632 161.23957506 67.08251953 159.35888672 C67.70076991 157.68510298 68.32159267 156.01226743 68.94482422 154.34033203 C70.72659759 149.54093952 72.44165804 144.72866711 74.0703125 139.875 C74.41320312 138.87484863 74.75609375 137.87469727 75.109375 136.84423828 C75.77964147 134.88467558 76.43367594 132.91947577 77.0703125 130.94873047 C77.534375 129.6089917 77.534375 129.6089917 78.0078125 128.2421875 C78.27223145 127.4466748 78.53665039 126.65116211 78.80908203 125.83154297 C80 124 80 124 82.49951172 123.10986328 C83.73725342 123.05548096 83.73725342 123.05548096 85 123 C87.46996719 125.46996719 87.43358687 126.65386671 87.89111328 130.07299805 C88.03952667 131.13137375 88.18794006 132.18974945 88.34085083 133.28019714 C88.57818436 135.00355034 88.57818436 135.00355034 88.8203125 136.76171875 C89.19264158 139.1848586 89.56907688 141.6073704 89.94921875 144.02929688 C90.5468445 147.85307215 91.12316314 151.67360464 91.63037109 155.51049805 C92.79602305 169.11988099 92.79602305 169.11988099 98.76599121 180.847229 C103.184964 183.86376455 107.78765821 185.05390297 113 186 C114.32 186.33 115.64 186.66 117 187 C117.33 140.8 117.66 94.6 118 47 C126.25 50.3 134.5 53.6 143 57 C148.4435361 59.16740567 148.4435361 59.16740567 153.88720703 61.33447266 C167.32951392 66.69233981 180.73453655 72.13892765 194.125 77.625 C194.98981995 77.97878723 195.85463989 78.33257446 196.7456665 78.69708252 C199.20876583 79.7051706 201.67094349 80.71547412 204.1328125 81.7265625 C205.23858643 82.17890259 205.23858643 82.17890259 206.36669922 82.64038086 C209.64870184 83.99140758 212.82229463 85.41114732 216 87 C216 138.48 216 189.96 216 243 C144.72 243 73.44 243 0 243 C0 162.81 0 82.62 0 0 Z " fill="#554E55" transform="translate(256,176)"/>
<path d="M0 0 C0.81939056 0.33809692 1.63878113 0.67619385 2.48300171 1.02453613 C4.26803982 1.76219262 6.05155629 2.50353967 7.83370972 3.24813843 C10.71250448 4.45091678 13.59504348 5.64427809 16.47875977 6.83520508 C19.57420894 8.11376527 22.66936569 9.39299649 25.76335144 10.6750946 C37.00977396 15.33494463 48.28348633 19.927218 59.55953979 24.51480103 C63.04532623 25.93309796 66.53065606 27.35251159 70.01586914 28.7722168 C83.40945317 34.2274356 96.80781276 39.67071777 110.21282959 45.09777832 C120.19917838 49.14098019 130.1795797 53.1985955 140.15625 57.265625 C141.3496701 57.75209503 142.54309021 58.23856506 143.77267456 58.73977661 C149.68740907 61.15101607 155.60176591 63.56317679 161.515625 65.9765625 C163.71874088 66.87502236 165.9218657 67.7734603 168.125 68.671875 C169.18405548 69.1043454 170.24311096 69.5368158 171.33425903 69.98239136 C176.40767029 72.05055766 181.48721011 74.09969433 186.58544922 76.10595703 C187.51675156 76.47342545 188.44805389 76.84089386 189.40757751 77.21949768 C191.14449151 77.90297669 192.88313892 78.58207319 194.62379456 79.25596619 C200.36901927 81.51745677 200.36901927 81.51745677 202.58984375 83.73828125 C202.83035278 86.75015259 202.83035278 86.75015259 202.81689453 90.66650391 C202.81718658 91.37880661 202.81747864 92.09110931 202.81777954 92.82499695 C202.81638391 95.18423559 202.80081202 97.54316014 202.78515625 99.90234375 C202.78142694 101.53616157 202.77857958 103.16998163 202.77658081 104.80380249 C202.76893785 109.10781001 202.74928374 113.41168293 202.72717285 117.71563721 C202.70672865 122.1059792 202.69758215 126.4963429 202.6875 130.88671875 C202.66603841 139.50396807 202.63189456 148.12110793 202.58984375 156.73828125 C197.86456098 156.0212781 193.75895305 154.76839659 189.37109375 152.9140625 C188.66172165 152.62053894 187.95234955 152.32701538 187.22148132 152.02459717 C185.66665057 151.38046951 184.11300076 150.73348563 182.56039429 150.08401489 C179.1301059 148.64939969 175.69390514 147.22919294 172.25810242 145.80784607 C170.3814388 145.03133584 168.50507365 144.25410396 166.62898254 143.47621155 C154.69975112 138.53222584 142.73774852 133.66873714 130.77734375 128.80078125 C128.44505408 127.85086515 126.11277871 126.90091392 123.78051758 125.95092773 C109.95342341 120.32027912 96.11875602 114.70862813 82.27734375 109.11328125 C67.89178536 103.29763786 53.51549975 97.45955927 39.14810181 91.59918213 C37.07707628 90.7544434 35.00593572 89.90998661 32.93466187 89.06585693 C30.97707713 88.26792584 29.01972286 87.46942909 27.06260681 86.67034912 C25.15040101 85.88994607 23.23753593 85.11115634 21.32398987 84.33404541 C16.19069023 82.24206717 11.0869196 80.09618405 6.00488281 77.88232422 C4.91809235 77.41406723 3.83130188 76.94581024 2.71157837 76.46336365 C0.62260374 75.56123641 -1.46125806 74.64714592 -3.53897095 73.71937561 C-10.74461483 70.62369418 -14.43555526 70.57936117 -21.73242188 73.33862305 C-23.42969478 74.03188936 -25.12418721 74.73198726 -26.81640625 75.4375 C-27.74841858 75.82007965 -28.68043091 76.2026593 -29.64068604 76.59683228 C-32.73286094 77.86751567 -35.82142293 79.14675762 -38.91015625 80.42578125 C-41.09378938 81.32450739 -43.27771435 82.22252475 -45.46191406 83.11987305 C-50.07646892 85.0160982 -54.68991392 86.91498955 -59.30273438 88.81542969 C-69.76526231 93.1221984 -80.24488226 97.38700753 -90.72436523 101.65231323 C-94.16216845 103.05160027 -97.59967652 104.45161008 -101.03710938 105.85180664 C-151.83058835 126.54016955 -151.83058835 126.54016955 -175.8293457 136.08544922 C-183.1857801 139.02048961 -190.51713247 142.01135822 -197.8359375 145.0390625 C-198.72837158 145.40768906 -199.62080566 145.77631561 -200.5402832 146.15611267 C-204.9650364 147.98408358 -209.38743163 149.81740636 -213.80615234 151.65991211 C-215.41755309 152.32687797 -217.02903978 152.99363624 -218.640625 153.66015625 C-219.38290848 153.9720137 -220.12519196 154.28387115 -220.88996887 154.60517883 C-223.88564933 155.8388679 -226.13693098 156.73828125 -229.41015625 156.73828125 C-229.52592242 147.27217866 -229.61480607 137.80631909 -229.66921711 128.33966351 C-229.69532971 123.94404313 -229.73075719 119.54890642 -229.78735352 115.15356445 C-229.84161538 110.91306102 -229.87156425 106.67302324 -229.88454247 102.43219948 C-229.89379297 100.81298297 -229.9118572 99.19379244 -229.93880653 97.57477379 C-229.9750223 95.30929552 -229.98010516 93.04574968 -229.9777832 90.7800293 C-229.98888626 89.48985397 -229.99998932 88.19967865 -230.01142883 86.8704071 C-229.41015625 83.73828125 -229.41015625 83.73828125 -227.09721375 81.89637756 C-225.76712029 81.32311989 -225.76712029 81.32311989 -224.41015625 80.73828125 C-223.23517578 80.21975586 -222.06019531 79.70123047 -220.84960938 79.16699219 C-219.46526184 78.59801018 -218.07907223 78.03349646 -216.69140625 77.47265625 C-215.93445465 77.16295898 -215.17750305 76.85326172 -214.39761353 76.53417969 C-211.90339182 75.51491505 -209.4068137 74.50156331 -206.91015625 73.48828125 C-205.14293514 72.7675744 -203.37584738 72.04654047 -201.60888672 71.32519531 C-196.21172645 69.12359446 -190.81133394 66.93000449 -185.41015625 64.73828125 C-184.62225708 64.41843262 -183.83435791 64.09858398 -183.02258301 63.76904297 C-176.35778814 61.06357812 -169.6918854 58.36085688 -163.02416992 55.66259766 C-151.12963867 50.84813517 -139.2480433 46.00236142 -127.36935425 41.1489563 C-109.22041633 33.7336795 -91.06996046 26.322178 -72.8828125 19.00097656 C-64.79408458 15.74261184 -56.71729815 12.46059162 -48.66944885 9.10227966 C-44.79216577 7.48576147 -40.90995091 5.88128656 -37.02731323 4.27767944 C-35.17611599 3.50912531 -33.32735137 2.73468203 -31.48123169 1.95401001 C-28.92833326 0.87490276 -26.36777162 -0.18364329 -23.8046875 -1.23828125 C-23.0556012 -1.56126694 -22.30651489 -1.88425262 -21.534729 -2.21702576 C-13.59172725 -5.43531485 -7.55824019 -3.19122784 0 0 Z " fill="#554E55" transform="translate(269.41015625,49.26171875)"/>
<path d="M0 0 C142.56 0 285.12 0 432 0 C432 10.56 432 21.12 432 32 C435.82851563 31.93039062 435.82851563 31.93039062 439.734375 31.859375 C442.20994071 31.82816843 444.68548441 31.80388702 447.16113281 31.78027344 C448.87998279 31.76017372 450.59876452 31.73288911 452.31738281 31.69824219 C454.78988489 31.64964966 457.2614821 31.62701565 459.734375 31.609375 C460.88459137 31.57840729 460.88459137 31.57840729 462.05804443 31.54681396 C465.636708 31.54531323 467.5975958 31.69195074 470.48120117 33.89941406 C472.11451169 36.15837623 472.56788582 37.24245881 472.5625 40 C472.58441406 40.66 472.60632813 41.32 472.62890625 42 C471.6179828 45.21486216 469.80780773 46.20867 467 48 C464.05857521 48.38466109 461.49617611 48.53814817 458.55880737 48.50336456 C457.70697254 48.50917833 456.85513772 48.51499209 455.97748971 48.52098203 C453.10954562 48.53563504 450.24245025 48.52167206 447.37451172 48.50793457 C445.30310566 48.51254138 443.23170286 48.51889281 441.16030693 48.52684355 C435.45757821 48.54359009 429.75511615 48.53526626 424.05238628 48.52289867 C417.90642651 48.51387229 411.76051355 48.52780591 405.61456299 48.53881836 C394.26701863 48.55560359 382.91958336 48.55411164 371.57204169 48.54317249 C361.08966497 48.53311677 350.60731952 48.53048041 340.12493896 48.53526306 C339.4300622 48.5355686 338.73518544 48.53587414 338.01925181 48.53618894 C335.19863702 48.53743426 332.37802225 48.53870786 329.55740749 48.540028 C303.08898955 48.55226853 276.62062596 48.54116298 250.1522164 48.51964041 C226.62814119 48.50065747 203.10415258 48.50235596 179.58007812 48.52148438 C153.16058332 48.54289528 126.74113656 48.55140049 100.32163429 48.53903532 C97.50610988 48.53775242 94.69058546 48.53650106 91.87506104 48.53526306 C91.18178911 48.53494675 90.48851719 48.53463044 89.77423702 48.53430455 C79.29753727 48.5297515 68.8208722 48.53508162 58.34417725 48.54518127 C46.4336513 48.55660579 34.52322767 48.55339983 22.61270571 48.5320583 C16.53214236 48.52152324 10.4517551 48.51746791 4.37119293 48.53065491 C-1.19013051 48.54253369 -6.75111391 48.53609086 -12.3124063 48.5147447 C-14.32915272 48.51025945 -16.3459276 48.51258768 -18.36265588 48.52224785 C-21.09512013 48.53433705 -23.82640562 48.52201317 -26.55880737 48.50336456 C-27.34962448 48.51272923 -28.14044158 48.52209389 -28.95522285 48.53174233 C-32.68856686 48.48049572 -34.80941654 48.12158876 -37.9882679 46.09353971 C-40 44 -40 44 -40.62890625 42 C-40.60699219 41.34 -40.58507813 40.68 -40.5625 40 C-40.56378906 39.34 -40.56507812 38.68 -40.56640625 38 C-39.71530968 34.99474865 -38.48345925 33.90114267 -36 32 C-33.1103488 31.6508995 -30.6140729 31.5318438 -27.734375 31.609375 C-26.94097717 31.61503479 -26.14757935 31.62069458 -25.33013916 31.62652588 C-22.80280527 31.64886853 -20.27690335 31.69905824 -17.75 31.75 C-16.03387468 31.77006786 -14.31772708 31.78831813 -12.6015625 31.8046875 C-8.40004987 31.84532108 -4.20162233 31.92360687 0 32 C0 21.44 0 10.88 0 0 Z " fill="#FDF0D9" transform="translate(40,419)"/>
<path d="M0 0 C0 24.42 0 48.84 0 74 C-6.43998935 76.92726789 -12.80865564 79.81167657 -19.36328125 82.43359375 C-20.1325293 82.74378952 -20.90177734 83.05398529 -21.69433594 83.37358093 C-23.35934094 84.04477111 -25.02476875 84.71491323 -26.69058228 85.38409424 C-31.32709043 87.24690037 -35.96019276 89.11814991 -40.59375 90.98828125 C-41.58345291 91.38750793 -42.57315582 91.78673462 -43.59284973 92.19805908 C-54.68514126 96.67494831 -65.76148285 101.1908718 -76.8374939 105.70785522 C-93.55371388 112.5249091 -110.27068316 119.34013668 -127 126.125 C-127.74539032 126.42731537 -128.49078064 126.72963074 -129.25875854 127.04110718 C-140.29662587 131.51599183 -151.35199024 135.94529373 -162.41918945 140.34716797 C-169.77562385 143.28220836 -177.10697622 146.27307697 -184.42578125 149.30078125 C-185.31821533 149.66940781 -186.21064941 150.03803436 -187.13012695 150.41783142 C-191.55488015 152.24580233 -195.97727538 154.07912511 -200.39599609 155.92163086 C-202.00739684 156.58859672 -203.61888353 157.25535499 -205.23046875 157.921875 C-205.97275223 158.23373245 -206.71503571 158.5455899 -207.47981262 158.86689758 C-210.47549308 160.10058665 -212.72677473 161 -216 161 C-216.11576617 151.53389741 -216.20464982 142.06803784 -216.25906086 132.60138226 C-216.28517346 128.20576188 -216.32060094 123.81062517 -216.37719727 119.4152832 C-216.43145913 115.17477977 -216.461408 110.93474199 -216.47438622 106.69391823 C-216.48363672 105.07470172 -216.50170095 103.45551119 -216.52865028 101.83649254 C-216.56486605 99.57101427 -216.56994891 97.30746843 -216.56762695 95.04174805 C-216.57873001 93.75157272 -216.58983307 92.4613974 -216.60127258 91.13212585 C-216 88 -216 88 -213.6870575 86.15809631 C-212.35696404 85.58483864 -212.35696404 85.58483864 -211 85 C-209.82501953 84.48147461 -208.65003906 83.96294922 -207.43945312 83.42871094 C-206.05510559 82.85972893 -204.66891598 82.29521521 -203.28125 81.734375 C-202.5242984 81.42467773 -201.7673468 81.11498047 -200.98745728 80.79589844 C-198.49323557 79.7766338 -195.99665745 78.76328206 -193.5 77.75 C-191.73277889 77.02929315 -189.96569113 76.30825922 -188.19873047 75.58691406 C-182.8015702 73.38531321 -177.40117769 71.19172324 -172 69 C-171.21210083 68.68015137 -170.42420166 68.36030273 -169.61242676 68.03076172 C-162.94763189 65.32529687 -156.28172915 62.62257563 -149.61401367 59.92431641 C-137.71948242 55.10985392 -125.83788705 50.26408017 -113.959198 45.41067505 C-95.81306161 37.9965429 -77.65901917 30.60268891 -59.48364258 23.26049805 C-57.79247799 22.57731734 -56.10131588 21.89413048 -54.41015625 21.2109375 C-53.57406326 20.87320816 -52.73797028 20.53547882 -51.87654114 20.18751526 C-46.29106595 17.92995333 -40.7096548 15.66256706 -35.13035583 13.38978577 C-31.2017602 11.78960242 -27.27215778 10.19189974 -23.34249878 8.59432983 C-21.45912364 7.82784066 -19.57624305 7.06013508 -17.69387817 6.29116821 C-15.09925624 5.23136439 -12.50295898 4.17577142 -9.90625 3.12109375 C-9.13135727 2.80326935 -8.35646454 2.48544495 -7.55809021 2.1579895 C-2.22774147 0 -2.22774147 0 0 0 Z " fill="#685E67" transform="translate(256,45)"/>
<path d="M0 0 C0.85435733 -0.00581376 1.70871466 -0.01162753 2.5889616 -0.01761746 C5.4714958 -0.03229516 8.35318882 -0.0182961 11.23571777 -0.00457001 C13.31522306 -0.00917585 15.3947251 -0.01552662 17.47422028 -0.02347898 C23.20394158 -0.04023891 28.93339777 -0.03189569 34.66312027 -0.01953411 C40.83634525 -0.01051315 47.00952346 -0.02443864 53.18273926 -0.0354538 C64.582214 -0.0522443 75.98158018 -0.05074445 87.38105226 -0.03980792 C97.91114844 -0.02975478 108.44121348 -0.02711464 118.97131348 -0.0318985 C119.6691768 -0.03220404 120.36704012 -0.03250958 121.08605081 -0.03282438 C123.91874205 -0.03406969 126.75143327 -0.03534328 129.58412448 -0.03666343 C156.16940655 -0.04890576 182.75463452 -0.03779558 209.33990824 -0.01627585 C232.9712227 0.00270729 256.60245094 0.00100881 280.23376465 -0.01811981 C306.76970493 -0.0395277 333.30559739 -0.04803762 359.8415451 -0.03567076 C362.66914367 -0.03438784 365.49674224 -0.03313649 368.32434082 -0.0318985 C369.02059297 -0.03158219 369.71684512 -0.03126588 370.43419582 -0.03093999 C380.95895126 -0.02638569 391.48367219 -0.03171938 402.00842285 -0.04181671 C413.97280025 -0.05323781 425.93707578 -0.05004233 437.9014492 -0.02869374 C444.01023517 -0.01815415 450.1188458 -0.01411096 456.22763062 -0.02729034 C461.81361349 -0.03915988 467.39925757 -0.03274183 472.98520947 -0.01138014 C475.01206214 -0.00689092 477.03894311 -0.00923186 479.06577778 -0.01888329 C481.80948366 -0.03095183 484.5520112 -0.01867005 487.2956543 0 C488.49106228 -0.014047 488.49106228 -0.014047 489.71061993 -0.02837777 C493.28237446 0.02059196 495.25856803 0.20492334 498.13443756 2.40982485 C499.76433482 4.66453485 500.21570357 5.75063759 500.21032715 8.50336456 C500.23224121 9.16336456 500.25415527 9.82336456 500.2767334 10.50336456 C499.26580994 13.71822673 497.45563488 14.71203457 494.64782715 16.50336456 C491.70640236 16.88802565 489.14400326 17.04151273 486.20663452 17.00672913 C485.35479969 17.01254289 484.50296486 17.01835665 483.62531686 17.02434659 C480.75737276 17.0389996 477.8902774 17.02503663 475.02233887 17.01129913 C472.9509328 17.01590594 470.87953001 17.02225738 468.80813408 17.03020811 C463.10540535 17.04695465 457.4029433 17.03863083 451.70021343 17.02626324 C445.55425366 17.01723685 439.4083407 17.03117048 433.26239014 17.04218292 C421.91484578 17.05896815 410.56741051 17.05747621 399.21986884 17.04653705 C388.73749211 17.03648133 378.25514667 17.03384498 367.77276611 17.03862762 C367.07788935 17.03893316 366.38301259 17.03923871 365.66707896 17.0395535 C362.84646417 17.04079882 360.02584939 17.04207242 357.20523464 17.04339256 C330.7368167 17.05563309 304.26845311 17.04452755 277.80004355 17.02300497 C254.27596834 17.00402204 230.75197973 17.00572053 207.22790527 17.02484894 C180.80841047 17.04625984 154.38896371 17.05476505 127.96946144 17.04239988 C125.15393703 17.04111698 122.33841261 17.03986562 119.52288818 17.03862762 C118.82961626 17.03831132 118.13634433 17.03799501 117.42206417 17.03766911 C106.94536442 17.03311606 96.46869935 17.03844619 85.99200439 17.04854584 C74.08147845 17.05997035 62.17105482 17.05676439 50.26053286 17.03542286 C44.17996951 17.0248878 38.09958224 17.02083247 32.01902008 17.03401947 C26.45769663 17.04589826 20.89671324 17.03945543 15.33542085 17.01810926 C13.31867442 17.01362401 11.30189954 17.01595224 9.28517127 17.02561241 C6.55270702 17.03770162 3.82142153 17.02537774 1.08901978 17.00672913 C0.29820267 17.01609379 -0.49261444 17.02545846 -1.3073957 17.0351069 C-5.04073972 16.98386028 -7.16158939 16.62495332 -10.34044075 14.59690428 C-12.35217285 12.50336456 -12.35217285 12.50336456 -12.9810791 10.50336456 C-12.95916504 9.84336456 -12.93725098 9.18336456 -12.91467285 8.50336456 C-12.91596191 7.84336456 -12.91725098 7.18336456 -12.9185791 6.50336456 C-11.07108825 -0.02018935 -5.83685908 -0.06858775 0 0 Z " fill="#7C6F7A" transform="translate(12.3521728515625,450.4966354370117)"/>
<path d="M0 0 C6.08818655 1.82645596 11.80706775 3.58216702 17.609375 6.01953125 C18.3133139 6.31031555 19.01725281 6.60109985 19.74252319 6.9006958 C21.27340128 7.53362178 22.80339485 8.16869062 24.33258057 8.80569458 C27.71383941 10.21391927 31.09968074 11.61097479 34.48526001 13.0087738 C36.3374978 13.77354076 38.18952291 14.53882299 40.04135132 15.30458069 C52.05113424 20.26818489 64.08890823 25.16313009 76.125 30.0625 C78.47429245 31.019266 80.82357632 31.97605308 83.17285156 32.93286133 C96.65060362 38.42100225 110.13284558 43.89793835 123.62161255 49.35894775 C133.60841956 53.40233167 143.58927937 57.46012812 153.56640625 61.52734375 C154.75982635 62.01381378 155.95324646 62.50028381 157.18283081 63.00149536 C163.09756532 65.41273482 169.01192216 67.82489554 174.92578125 70.23828125 C177.12889713 71.13674111 179.33202195 72.03517905 181.53515625 72.93359375 C183.12373947 73.58229935 183.12373947 73.58229935 184.74441528 74.24411011 C189.81782654 76.31227641 194.89736636 78.36141308 199.99560547 80.36767578 C201.39255898 80.9188784 201.39255898 80.9188784 202.81773376 81.48121643 C204.55464776 82.16469544 206.29329517 82.84379194 208.03395081 83.51768494 C213.77917552 85.77917552 213.77917552 85.77917552 216 88 C216.22705078 90.52197266 216.22705078 90.52197266 216.1953125 93.6640625 C216.18564453 95.34628906 216.18564453 95.34628906 216.17578125 97.0625 C216.15064453 98.8259375 216.15064453 98.8259375 216.125 100.625 C216.11597656 101.80835938 216.10695313 102.99171875 216.09765625 104.2109375 C216.07402812 107.14082523 216.04108514 110.0703134 216 113 C209.04820345 111.02239249 202.31383377 108.69535645 195.58203125 106.0703125 C194.59227798 105.6880098 193.60252472 105.30570709 192.58277893 104.91181946 C190.44468114 104.0855493 188.3072238 103.25762033 186.17034912 102.42819214 C181.54948568 100.63482004 176.92533579 98.84999556 172.30133057 97.06474304 C169.87226792 96.12690471 167.44335556 95.18867703 165.0145874 94.25007629 C149.87326157 88.40047432 134.70879357 82.61154019 119.54003906 76.83349609 C117.26236722 75.96582708 114.98469794 75.0981513 112.70703125 74.23046875 C111.58396576 73.8027417 110.46090027 73.37501465 109.30380249 72.93432617 C102.28304686 70.25826889 95.2688918 67.56560416 88.25909424 64.86097717 C83.63229233 63.07687205 79.00288972 61.29957954 74.37310791 59.52322388 C72.18856152 58.68307104 70.00522195 57.83977261 67.82318115 56.99313354 C64.81358947 55.82575922 61.79993776 54.66951725 58.78515625 53.515625 C57.90752121 53.1719136 57.02988617 52.82820221 56.12565613 52.47407532 C46.7969005 48.91929471 46.7969005 48.91929471 37.1875 50.25 C32.91974827 52.59307938 30.86651106 54.52382109 29 59 C28.63495312 61.90099927 28.63495312 61.90099927 28.5859375 65.078125 C28.54726563 66.23828125 28.50859375 67.3984375 28.46875 68.59375 C28.4378125 69.8003125 28.406875 71.006875 28.375 72.25 C28.33632813 73.47203125 28.29765625 74.6940625 28.2578125 75.953125 C28.16357892 78.9685994 28.07796545 81.98406828 28 85 C18.4868512 81.8289504 9.24191928 77.89133443 0 74 C0 49.58 0 25.16 0 0 Z " fill="#433F43" transform="translate(256,45)"/>
<path d="M0 0 C3.55161519 0.71032304 6.23990042 1.36987185 9.51489258 2.67407227 C10.8056646 3.18448814 10.8056646 3.18448814 12.12251282 3.70521545 C13.49466194 4.2552549 13.49466194 4.2552549 14.89453125 4.81640625 C16.31556404 5.38028297 16.31556404 5.38028297 17.76530457 5.95555115 C20.78263055 7.15390288 23.79757723 8.35811655 26.8125 9.5625 C28.86117387 10.37734106 30.9100003 11.19179867 32.95898438 12.00585938 C37.97473661 13.99875243 42.98722749 15.99955799 48 18 C48 30.21 48 42.42 48 55 C42 54 42 54 28 48 C28 112.35 28 176.7 28 243 C18.76 243 9.52 243 0 243 C0 162.81 0 82.62 0 0 Z " fill="#433F42" transform="translate(256,176)"/>
<path d="M0 0 C0 6.27 0 12.54 0 19 C0.99 18.67 1.98 18.34 3 18 C6.51567217 17.74431475 9.15552906 17.65355038 12.4375 19 C14.46473224 21.59485727 14.62573624 23.82372626 14.44140625 27.0703125 C14 29 14 29 12 31.3125 C9 33 9 33 1 36 C0.67 80.88 0.34 125.76 0 172 C-13.86 172 -27.72 172 -42 172 C-42 120.52 -42 69.04 -42 16 C-3.84615385 0 -3.84615385 0 0 0 Z " fill="#554E56" transform="translate(82,247)"/>
<path d="M0 0 C62.04 0 124.08 0 188 0 C188 10.23 188 20.46 188 31 C125.96 31 63.92 31 0 31 C0 20.77 0 10.54 0 0 Z " fill="#FEF1DA" transform="translate(284,420)"/>
<path d="M0 0 C2.67441393 0.93281788 5.34782564 1.86835641 8.02075195 2.80541992 C9.14060863 3.1955489 9.14060863 3.1955489 10.28308868 3.59355927 C17.71275687 6.20266872 24.9494625 9.21719599 32.1875 12.3125 C34.19718825 13.1650249 36.20768275 14.01562681 38.21827698 14.86601257 C39.55446656 15.43117302 40.89043741 15.9968509 42.22618103 16.56306458 C48.44298508 19.19594741 54.68539672 21.76461274 60.9375 24.3125 C61.86651123 24.69124268 62.79552246 25.06998535 63.75268555 25.46020508 C65.83463515 26.30800411 67.91723079 27.15421649 70 28 C70 34.27 70 40.54 70 47 C63.88513778 45.33939526 58.07450666 43.29550896 52.234375 40.86328125 C51.54734497 40.5775827 50.86031494 40.29188416 50.15246582 39.99752808 C47.29007376 38.80255007 44.43045944 37.60132096 41.57519531 36.3894043 C39.46537669 35.49633037 37.35039481 34.61654104 35.234375 33.73828125 C34.59675232 33.46333328 33.95912964 33.18838531 33.30218506 32.90510559 C29.33702623 31.27069111 26.25143186 30.89063579 22 31 C22.00888245 32.27849319 22.01776489 33.55698639 22.0269165 34.8742218 C22.10818204 46.95270074 22.16805165 59.03112383 22.20724869 71.10981464 C22.22807808 77.31885023 22.25631105 83.5276642 22.30175781 89.73657227 C22.3453809 95.73421072 22.36917204 101.73163669 22.37950897 107.72942162 C22.3868708 110.01184621 22.40124644 112.29425984 22.42292023 114.5765934 C22.45217255 117.78609516 22.45594684 120.99473101 22.45410156 124.2043457 C22.47567322 125.60373886 22.47567322 125.60373886 22.49768066 127.03140259 C22.45716603 133.59043166 21.57720351 140.3596713 18 146 C14.58507961 147.2253038 13.35685954 147.13676597 9.921875 145.8203125 C8.35179687 144.98113281 8.35179687 144.98113281 6.75 144.125 C5.16445313 143.29355469 5.16445313 143.29355469 3.546875 142.4453125 C1 141 1 141 0 140 C-0.09641497 138.19039129 -0.12187398 136.37697872 -0.12025452 134.56480408 C-0.12162918 133.38544785 -0.12300385 132.20609161 -0.12442017 130.99099731 C-0.12082489 129.6854892 -0.11722961 128.37998108 -0.11352539 127.03491211 C-0.11324352 125.65547182 -0.11340125 124.27603139 -0.1139679 122.89659119 C-0.11425588 119.14055882 -0.10835905 115.38455811 -0.10139394 111.62853312 C-0.09516051 107.70739955 -0.09455661 103.78626533 -0.09336853 99.86512756 C-0.09025518 92.43488389 -0.08204175 85.00465486 -0.07201904 77.57441765 C-0.06085801 69.11748362 -0.05534748 60.6605489 -0.05032361 52.20360935 C-0.03985914 34.80239775 -0.02225963 17.40120042 0 0 Z " fill="#F9C500" transform="translate(304,195)"/>
<path d="M0 0 C0 24.42 0 48.84 0 74 C-6.373125 76.64 -12.74625 79.28 -19.3125 82 C-21.32126221 82.8353125 -23.33002441 83.670625 -25.3996582 84.53125 C-26.99152667 85.18791844 -28.58355674 85.84419534 -30.17578125 86.5 C-31.00251343 86.84546875 -31.82924561 87.1909375 -32.68103027 87.546875 C-33.86819641 88.03414062 -33.86819641 88.03414062 -35.0793457 88.53125 C-36.10859917 88.95760742 -36.10859917 88.95760742 -37.15864563 89.39257812 C-39 90 -39 90 -42 90 C-42.11576617 80.53389741 -42.20464982 71.06803784 -42.25906086 61.60138226 C-42.28517346 57.20576188 -42.32060094 52.81062517 -42.37719727 48.4152832 C-42.43145913 44.17477977 -42.461408 39.93474199 -42.47438622 35.69391823 C-42.48363672 34.07470172 -42.50170095 32.45551119 -42.52865028 30.83649254 C-42.56486605 28.57101427 -42.56994891 26.30746843 -42.56762695 24.04174805 C-42.57873001 22.75157272 -42.58983307 21.4613974 -42.60127258 20.13212585 C-42 17 -42 17 -39.6920929 15.16149902 C-38.35950691 14.58655701 -38.35950691 14.58655701 -37 14 C-35.79843262 13.4635083 -34.59686523 12.9270166 -33.35888672 12.37426758 C-31.9676522 11.79328254 -30.57447947 11.21692313 -29.1796875 10.64453125 C-28.43921173 10.33803146 -27.69873596 10.03153168 -26.93582153 9.71574402 C-25.37845703 9.07255529 -23.8202424 8.43142154 -22.26123047 7.79223633 C-19.87308013 6.81171174 -17.48919769 5.82129531 -15.10546875 4.83007812 C-13.58878923 4.20512803 -12.07187023 3.58075871 -10.5546875 2.95703125 C-9.84214813 2.6602095 -9.12960876 2.36338776 -8.39547729 2.05757141 C-5.43893084 0.85327409 -3.22483329 0 0 0 Z " fill="#554E56" transform="translate(82,116)"/>
<path d="M0 0 C142.56 0 285.12 0 432 0 C432 0.33 432 0.66 432 1 C369.96 1 307.92 1 244 1 C244 11.23 244 21.46 244 32 C234.76 32 225.52 32 216 32 C216 21.77 216 11.54 216 1 C158.58 1 101.16 1 42 1 C42 11.23 42 21.46 42 32 C28.14 32 14.28 32 0 32 C0 21.44 0 10.88 0 0 Z " fill="#F0DABB" transform="translate(40,419)"/>
<path d="M0 0 C0.33 18.48 0.66 36.96 1 56 C-4.795625 58.43375 -10.59125 60.8675 -16.5625 63.375 C-18.3782251 64.13989746 -20.1939502 64.90479492 -22.06469727 65.69287109 C-23.52346933 66.30337285 -24.98236433 66.91358096 -26.44140625 67.5234375 C-27.18289917 67.83708252 -27.92439209 68.15072754 -28.68835449 68.47387695 C-29.41840698 68.77817627 -30.14845947 69.08247559 -30.90063477 69.39599609 C-31.83662254 69.78904434 -31.83662254 69.78904434 -32.79151917 70.19003296 C-35.8044989 71.29505241 -38.91425484 72.11835853 -42 73 C-42 54.19 -42 35.38 -42 16 C-23.625 8.5625 -23.625 8.5625 -17.82666016 6.21704102 C-16.31410146 5.60439398 -14.80156722 4.99168654 -13.2890625 4.37890625 C-12.50039795 4.06014526 -11.7117334 3.74138428 -10.89916992 3.41296387 C-2.47989343 0 -2.47989343 0 0 0 Z " fill="#F9C500" transform="translate(82,190)"/>
<path d="M0 0 C3.6280353 0.68561595 6.81454121 1.61711773 10.23046875 3.03125 C11.19791016 3.42957031 12.16535156 3.82789062 13.16210938 4.23828125 C14.16048828 4.65464844 15.15886719 5.07101563 16.1875 5.5 C17.19748047 5.91636719 18.20746094 6.33273438 19.24804688 6.76171875 C26.60985763 9.80492881 26.60985763 9.80492881 29 11 C29.33 29.81 29.66 48.62 30 68 C19.86240786 64.62080262 19.86240786 64.62080262 16 62.9921875 C14.76443359 62.47205078 14.76443359 62.47205078 13.50390625 61.94140625 C12.67761719 61.58949219 11.85132813 61.23757812 11 60.875 C9.71416016 60.33552734 9.71416016 60.33552734 8.40234375 59.78515625 C2.13188959 57.13188959 2.13188959 57.13188959 1 56 C0.8768483 54.25161165 0.82212189 52.49835496 0.79467773 50.74584961 C0.77473251 49.62476303 0.75478729 48.50367645 0.73423767 47.34861755 C0.71752518 46.1288472 0.70081268 44.90907684 0.68359375 43.65234375 C0.66281265 42.41078018 0.64203156 41.16921661 0.62062073 39.89002991 C0.56616391 36.58400877 0.51595795 33.27797755 0.46777344 29.97186279 C0.41760144 26.60032509 0.36189299 23.22887947 0.30664062 19.85742188 C0.19929962 13.23835449 0.09755802 6.6192184 0 0 Z " fill="#F9C500" transform="translate(255,119)"/>
<path d="M0 0 C1.55025879 0.65307129 1.55025879 0.65307129 3.13183594 1.31933594 C4.26878906 1.79757812 5.40574219 2.27582031 6.57714844 2.76855469 C7.74503906 3.27515625 8.91292969 3.78175781 10.11621094 4.30371094 C11.29957031 4.79484375 12.48292969 5.28597656 13.70214844 5.79199219 C23.63270702 10.03340388 23.63270702 10.03340388 25.86621094 14.05371094 C25.80037831 17.80617045 25.68219899 20.11683577 23.17871094 22.99121094 C19.26277836 24.7904232 15.89620541 24.38183382 11.84594727 23.09155273 C10.80720459 22.64980713 9.76846191 22.20806152 8.69824219 21.75292969 C7.55806641 21.27017578 6.41789062 20.78742188 5.24316406 20.29003906 C4.06689453 19.77892578 2.890625 19.2678125 1.67871094 18.74121094 C0.49083984 18.24169922 -0.69703125 17.7421875 -1.92089844 17.22753906 C-11.75424822 13.01643351 -11.75424822 13.01643351 -14.13378906 10.05371094 C-14.74373018 7.32820827 -14.63645422 4.79552091 -14.13378906 2.05371094 C-10.62296264 -2.44014688 -4.99806278 -1.50923117 0 0 Z " fill="#433F43" transform="translate(430.1337890625,265.9462890625)"/>
<path d="M0 0 C1.9926072 2.55053721 2.08719411 4.78330852 2.19140625 7.96484375 C1.23232145 11.06846598 -0.84518815 12.12105881 -3.4375 14 C-7.31348381 15.98768401 -11.34895165 17.59037072 -15.375 19.25 C-16.44685547 19.70890625 -17.51871094 20.1678125 -18.62304688 20.640625 C-19.66396484 21.07375 -20.70488281 21.506875 -21.77734375 21.953125 C-22.71956787 22.34661133 -23.66179199 22.74009766 -24.63256836 23.14550781 C-27.76084446 24.0985034 -30.18474739 24.29522006 -33.4375 24 C-36.375 21.9375 -36.375 21.9375 -38.4375 19 C-38.625 15.4375 -38.625 15.4375 -37.4375 12 C-32.96393779 8.49685667 -28.13206915 6.4502797 -22.875 4.375 C-22.13314453 4.0759375 -21.39128906 3.776875 -20.62695312 3.46875 C-19.1974507 2.89338482 -17.76628412 2.32213185 -16.33325195 1.75561523 C-14.75786984 1.1276941 -13.19372909 0.4716572 -11.6328125 -0.19140625 C-7.62125724 -1.66897198 -3.94288371 -1.61759332 0 0 Z " fill="#433F43" transform="translate(94.4375,266)"/>
<path d="M0 0 C2.5881216 2.25417042 2.94242643 3.60520979 3.4375 7 C2.88877064 10.76271562 1.86098733 11.56749879 -1 14 C-4.94704982 16.06540223 -9.10870808 17.61440365 -13.25 19.25 C-14.35730469 19.70890625 -15.46460938 20.1678125 -16.60546875 20.640625 C-22.63472603 23.04946025 -27.4911818 24.77922471 -34 24 C-36.6923481 21.81246717 -36.93936827 20.41576045 -37.4375 17 C-36.88771666 13.23005707 -35.86690497 12.44044799 -33 10 C-28.86711271 7.75964316 -24.51701988 6.01383066 -20.1875 4.1875 C-19.02412109 3.67251953 -17.86074219 3.15753906 -16.66210938 2.62695312 C-15.52966797 2.14548828 -14.39722656 1.66402344 -13.23046875 1.16796875 C-12.20332764 0.72735107 -11.17618652 0.2867334 -10.11791992 -0.16723633 C-6.36917649 -1.16848633 -3.76048602 -0.8622101 0 0 Z " fill="#433F43" transform="translate(237,207)"/>
<path d="M0 0 C2.6923481 2.18753283 2.93936827 3.58423955 3.4375 7 C2.88771666 10.76994293 1.86690497 11.55955201 -1 14 C-5.13288729 16.24035684 -9.48298012 17.98616934 -13.8125 19.8125 C-14.97587891 20.32748047 -16.13925781 20.84246094 -17.33789062 21.37304688 C-18.47033203 21.85451172 -19.60277344 22.33597656 -20.76953125 22.83203125 C-21.79667236 23.27264893 -22.82381348 23.7132666 -23.88208008 24.16723633 C-27.64245329 25.17159253 -30.23384718 24.90447985 -34 24 C-36.13744744 21.51780298 -36.84906571 19.67081907 -37.5625 16.5 C-36.70712003 12.69831127 -34.12469292 11.04899131 -31 9 C-27.29234883 7.16610803 -23.48550712 5.66719693 -19.625 4.1875 C-18.62210938 3.78080078 -17.61921875 3.37410156 -16.5859375 2.95507812 C-10.8120922 0.70675486 -6.20337911 -0.66311984 0 0 Z " fill="#433F43" transform="translate(165,236)"/>
<path d="M0 0 C7.01448452 2.10434536 13.31408696 4.23012174 20 7 C20 13.93 20 20.86 20 28 C16.67666588 27.33533318 14.24432568 26.82159397 11.23046875 25.58984375 C10.33557739 25.22814087 10.33557739 25.22814087 9.42260742 24.85913086 C8.68502197 24.55499268 7.94743652 24.25085449 7.1875 23.9375 C4.815625 22.968125 2.44375 21.99875 0 21 C0 14.07 0 7.14 0 0 Z " fill="#554E55" transform="translate(284,187)"/>
<path d="M0 0 C4.12664168 1.23075278 7.48854963 2.98854963 10.5625 6.0625 C10.92645977 9.92047355 11.12257535 12.22238698 8.9375 15.5 C5.82925557 17.54489765 4.23204188 17.57623586 0.5625 17.0625 C-6.32939189 14.22466216 -6.32939189 14.22466216 -8.4375 11.0625 C-9.14291917 7.0063398 -8.75870577 5.51997488 -6.375 2.125 C-3.4375 0.0625 -3.4375 0.0625 0 0 Z " fill="#433F43" transform="translate(398.4375,253.9375)"/>
<path d="M0 0 C2.875 2.0625 2.875 2.0625 5 5 C5 8.52195357 4.75838641 10.84246285 2.8125 13.8125 C-1.04210681 16.33793205 -5.41478325 17.72398159 -10 17 C-12.3125 15.4375 -12.3125 15.4375 -14 13 C-14.56545512 9.04181414 -14.7014015 6.96117983 -12.3125 3.6875 C-8.47740192 0.88891492 -4.7930295 -0.83878016 0 0 Z " fill="#444044" transform="translate(117,254)"/>
<path d="M0 0 C2.375 1.5 2.375 1.5 4 4 C4.58428517 6.9631605 4.39344818 8.90159561 4 12 C2.25 13.875 2.25 13.875 0 15 C-0.61875 15.391875 -1.2375 15.78375 -1.875 16.1875 C-4.79371213 17.30347817 -6.90029468 17.38746316 -10 17 C-12.60327641 15.35582543 -13.69017576 14.10750605 -14.5234375 11.12890625 C-14.77938637 8.79447601 -14.73542025 7.23727245 -14 5 C-10.2094227 1.10672233 -5.43097418 -1.11088108 0 0 Z " fill="#444044" transform="translate(189,225)"/>
<path d="M0 0 C8.50980392 3.64705882 8.50980392 3.64705882 10 7 C9.93351603 10.78958606 9.83225402 13.07857591 7.25 15.9375 C5 17 5 17 0 17 C0 11.39 0 5.78 0 0 Z " fill="#433F43" transform="translate(374,244)"/>
<path d="M0 0 C0 4.95 0 9.9 0 15 C-6 14 -6 14 -8.375 12.3125 C-10.51417751 9.26828585 -10.60817046 7.64902278 -10 4 C-6.89530294 -0.53763416 -5.91563965 0 0 0 Z " fill="#433F43" transform="translate(472,284)"/>
<path d="M0 0 C6 0 6 0 8.375 1.625 C10.48706506 4.71186432 10.61195145 6.3282913 10 10 C8.375 12.3125 8.375 12.3125 6 14 C4.02 14.33 2.04 14.66 0 15 C0 10.05 0 5.1 0 0 Z " fill="#443F44" transform="translate(40,284)"/>
</svg>
