<?xml version="1.0" encoding="UTF-8"?>
<svg version="1.1" xmlns="http://www.w3.org/2000/svg" width="512" height="512">
<path d="M0 0 C0.99644531 -0.02835938 1.99289063 -0.05671875 3.01953125 -0.0859375 C11.2339822 1.10926005 16.67346096 7.38030268 22.296875 12.98046875 C23.1455011 13.81910965 23.9941272 14.65775055 24.86846924 15.52180481 C26.65403861 17.29223579 28.43560431 19.06671276 30.21337891 20.8449707 C32.92702202 23.55204737 35.66374637 26.23421623 38.40234375 28.91601562 C40.13948908 30.64435887 41.87521478 32.37413037 43.609375 34.10546875 C44.42500916 34.89954636 45.24064331 35.69362396 46.08099365 36.51176453 C51.30872995 41.80315799 54.95393886 46.80890822 55.27484131 54.45646667 C54.59264437 63.76025747 48.42002592 69.56596303 42.140625 75.71484375 C40.98382233 76.86527916 40.98382233 76.86527916 39.8036499 78.03895569 C37.35525848 80.47064549 34.89661033 82.89165533 32.4375 85.3125 C30.7688413 86.96610094 29.10086499 88.62039077 27.43359375 90.27539062 C23.35942707 94.31660107 19.27680315 98.3491099 15.1875 102.375 C20.03068644 103.74387811 25.2580838 104.95817633 29.913414 102.44224548 C34.47047758 99.05485329 38.256124 94.80827484 42.1171875 90.671875 C43.4012217 89.35151243 44.68873196 88.03452228 45.97952271 86.72076416 C49.3585169 83.26593306 52.69503832 79.77298655 56.02227783 76.26837158 C61.35659743 70.66435982 66.75520258 65.12219665 72.15082169 59.57730865 C74.02358172 57.64152753 75.87914892 55.69047603 77.73239136 53.73602295 C78.88234269 52.53955999 80.03256644 51.34335877 81.18310547 50.14746094 C81.68920853 49.60498215 82.19531158 49.06250336 82.7167511 48.50358582 C86.78571481 44.31158903 90.82158101 41.92431798 96.62890625 40.9765625 C97.67884766 40.98816406 97.67884766 40.98816406 98.75 41 C99.45253906 40.99226563 100.15507812 40.98453125 100.87890625 40.9765625 C108.58302968 42.30620817 113.33581864 48.05581529 118.63671875 53.35546875 C119.53115189 54.24228836 120.42558502 55.12910797 121.34712219 56.0428009 C123.23287376 57.91776516 125.11503967 59.79568504 126.99243164 61.67895508 C129.38628065 64.07869626 131.79786259 66.45969033 134.21477032 68.83617687 C136.53358077 71.12275988 138.83402641 73.42767237 141.13671875 75.73046875 C141.99923752 76.57659225 142.86175629 77.42271576 143.75041199 78.29447937 C149.04620027 83.65177036 152.745114 88.14680187 153.40234375 95.9140625 C153.31082031 96.60242188 153.21929687 97.29078125 153.125 98 C153.05152344 98.69351563 152.97804688 99.38703125 152.90234375 100.1015625 C150.90517482 106.4532145 145.85003427 110.9814254 141.23168945 115.52612305 C140.54020813 116.21468384 139.84872681 116.90324463 139.1362915 117.6126709 C137.64182934 119.09955048 136.14506198 120.58411598 134.64623451 122.06659508 C132.27593009 124.41130153 129.91199236 126.7622618 127.54960632 129.11494446 C122.53864832 134.10309129 117.51988317 139.08333736 112.5 144.0625 C106.67224866 149.84308554 100.84772391 155.62684522 95.03154564 161.41907692 C92.69949178 163.73814029 90.36150937 166.05111354 88.02326965 168.36393738 C86.60026172 169.77968329 85.17753213 171.19570905 83.75512695 172.61206055 C82.77409248 173.57759605 82.77409248 173.57759605 81.77323914 174.56263733 C81.18024017 175.1554953 80.58724121 175.74835327 79.97627258 176.35917664 C79.20008056 177.12870682 79.20008056 177.12870682 78.40820789 177.91378307 C76.94994947 179.47842417 76.94994947 179.47842417 76.1875 182.375 C76.950625 182.9525 77.71375 183.53 78.5 184.125 C80.84950917 186.09203093 82.48073505 187.85976744 84.1875 190.375 C84.54268707 189.53281921 84.89787415 188.69063843 85.26382446 187.82293701 C87.6281295 183.58522919 90.53869787 180.60336056 93.96630859 177.20800781 C94.65121872 176.51784073 95.33612885 175.82767365 96.04179382 175.11659241 C98.29903969 172.84618439 100.5670329 170.58687761 102.8359375 168.328125 C104.41194834 166.75009259 105.98751366 165.17161513 107.56265259 163.5927124 C110.86145604 160.2894909 114.16561266 156.99174451 117.47363281 153.69775391 C121.71298606 149.47550591 125.93871067 145.23991446 130.16052818 141.00014114 C133.40988163 137.73994805 136.66634548 134.48693302 139.92500687 131.23604584 C141.48612323 129.67693023 143.04501547 128.11558435 144.60163498 126.55197906 C146.7772139 124.36878156 148.96217827 122.19543197 151.14990234 120.02441406 C151.79111526 119.37712845 152.43232819 118.72984283 153.0929718 118.0629425 C157.72560572 113.49563088 161.43623306 111.09420032 168.125 111.0625 C168.93839844 111.04574219 169.75179688 111.02898437 170.58984375 111.01171875 C178.48689227 112.11611802 183.34088115 118.10798255 188.671875 123.49609375 C190.01708221 124.84055321 190.01708221 124.84055321 191.38946533 126.21217346 C193.27914229 128.10418643 195.16564924 129.99880423 197.04736328 131.89868164 C199.45530135 134.32935438 201.87420884 136.74874569 204.2969017 139.16470242 C206.61463209 141.47828365 208.92426949 143.79990275 211.234375 146.12109375 C212.10205505 146.9878624 212.96973511 147.85463104 213.8637085 148.74766541 C214.66504211 149.55853104 215.46637573 150.36939667 216.29199219 151.20483398 C216.99781433 151.91526352 217.70363647 152.62569305 218.43084717 153.35765076 C221.69019058 157.10069768 222.53284839 160.13297983 222.6875 165.0625 C222.76484375 166.52236328 222.76484375 166.52236328 222.84375 168.01171875 C220.67750977 179.11369993 209.3038647 187.6952513 201.62890625 195.33203125 C200.19649712 196.76646451 198.76453331 198.20134258 197.33299255 199.63664246 C194.34297198 202.6310675 191.34763989 205.620046 188.34838867 208.60522461 C184.51398755 212.42250423 180.69325569 216.25313805 176.8763895 220.08794117 C173.92635593 223.04883677 170.96918786 226.00252367 168.00984001 228.95410728 C166.5983078 230.36364581 165.18897979 231.77539539 163.78195381 233.18943214 C161.81307795 235.16596557 159.83477211 237.13256428 157.85375977 239.09692383 C157.28055496 239.67620132 156.70735016 240.25547882 156.11677551 240.85231018 C151.84330124 245.05979941 147.39537912 248.77572588 141.34375 249.90625 C140.02890625 249.89078125 140.02890625 249.89078125 138.6875 249.875 C137.8109375 249.8853125 136.934375 249.895625 136.03125 249.90625 C127.89836707 248.38692022 122.5726929 242.17274591 117.0078125 236.5234375 C116.15444305 235.66819489 115.30107361 234.81295227 114.42184448 233.93179321 C112.62828812 232.13153888 110.83832089 230.32770244 109.05175781 228.52050781 C106.30793454 225.74538246 103.55344645 222.98120737 100.796875 220.21875 C99.05405971 218.46677011 97.3118506 216.71418697 95.5703125 214.9609375 C94.74435577 214.1307309 93.91839905 213.30052429 93.06741333 212.44515991 C92.30927338 211.67741241 91.55113342 210.90966492 90.77001953 210.11865234 C90.10052277 209.44232758 89.431026 208.76600281 88.74124146 208.06918335 C87.1875 206.375 87.1875 206.375 86.1875 204.375 C85.89617187 204.89449219 85.60484375 205.41398438 85.3046875 205.94921875 C82.44753376 210.80997401 79.67968634 213.98090365 75.1875 217.375 C74.5275 218.035 73.8675 218.695 73.1875 219.375 C73.67635681 219.79443375 74.16521362 220.21386749 74.66888428 220.64601135 C79.55034405 224.8704133 84.23783742 229.23953561 88.828125 233.77734375 C89.51759216 234.45873917 90.20705933 235.14013458 90.91741943 235.84217834 C92.36078312 237.27182368 93.80268328 238.702948 95.24316406 240.13549805 C96.70877552 241.58953202 98.17885777 243.03907309 99.65332031 244.48413086 C101.80486471 246.59290244 103.94275259 248.71471192 106.078125 250.83984375 C106.73234436 251.47655502 107.38656372 252.1132663 108.06060791 252.76927185 C112.69909377 257.42983958 116.31301706 262.31122634 117.71875 268.84375 C117.60565241 276.19509362 114.8744712 281.75063457 110.1875 287.375 C111.8375 289.685 113.4875 291.995 115.1875 294.375 C120.34126196 290.06882365 125.13510459 285.54647019 129.84765625 280.76489258 C130.57870575 280.02756393 131.30975525 279.29023529 132.06295776 278.53056335 C133.63919509 276.94054965 135.21435732 275.34946957 136.7885437 273.75742531 C139.28271087 271.23646904 141.78136297 268.72004275 144.28149414 266.20500183 C151.38594908 259.05793536 158.48768495 251.90823976 165.57324219 244.74243164 C169.91688205 240.35025242 174.27024047 235.9679135 178.63009644 231.59183311 C180.28591835 229.92612347 181.93807998 228.25676684 183.5864563 226.58368874 C185.89091787 224.24544823 188.20756066 221.91995055 190.52734375 219.59692383 C191.20183563 218.9064798 191.87632751 218.21603577 192.57125854 217.50466919 C197.66062657 212.44758647 201.81926543 209.74924829 209.125 208.9375 C218.4556461 209.39233477 224.50401625 216.12385518 230.6484375 222.375 C231.52021637 223.24769531 232.39199524 224.12039062 233.29019165 225.01953125 C235.1218879 226.85724559 236.94874525 228.69979433 238.77099609 230.546875 C241.56372302 233.37623906 244.37224927 236.18914624 247.18359375 239 C248.96449037 240.79072367 250.74447069 242.58235918 252.5234375 244.375 C253.36296967 245.21675781 254.20250183 246.05851563 255.06747437 246.92578125 C255.84233185 247.71339844 256.61718933 248.50101563 257.41552734 249.3125 C258.09755219 250.00214844 258.77957703 250.69179688 259.48226929 251.40234375 C262.93068196 255.39155927 263.50149178 258.51549468 263.5625 263.75 C263.59085937 264.85085938 263.61921875 265.95171875 263.6484375 267.0859375 C262.8149716 273.03321113 258.7787433 277.03397089 254.64434814 281.15866089 C253.738535 282.06722336 252.83272186 282.97578583 251.89945984 283.91188049 C250.90344388 284.90082004 249.90733167 285.88966266 248.91113281 286.87841797 C247.85593919 287.93304688 246.80118689 288.98811751 245.74684143 290.04359436 C242.89419143 292.89681652 240.03543156 295.74384416 237.17551136 298.58977652 C234.18371201 301.56904575 231.1976019 304.55400632 228.21087646 307.5383606 C222.55908284 313.18394616 216.90221181 318.82441546 211.24348617 324.46305192 C204.79941538 330.88474275 198.36104475 337.31213562 191.92314005 343.74000716 C178.68424686 356.95801361 165.43823367 370.16886391 152.1875 383.375 C154.4975 384.035 156.8075 384.695 159.1875 385.375 C159.230221 387.04111905 159.22813832 388.70882885 159.1875 390.375 C157.53452091 392.02797909 155.57713445 391.54192183 153.30053711 391.58032227 C152.25953354 391.60026749 151.21852997 391.62021271 150.14598083 391.64076233 C148.44756798 391.66583107 148.44756798 391.66583107 146.71484375 391.69140625 C145.56206436 391.71218735 144.40928497 391.73296844 143.22157288 391.75437927 C139.52277843 391.81999964 135.82391041 391.87881755 132.125 391.9375 C129.62434121 391.98067335 127.12368999 392.02428724 124.62304688 392.06835938 C118.47794338 392.17569368 112.33276596 392.27743643 106.1875 392.375 C106.74107178 392.90681885 107.29464355 393.4386377 107.86499023 393.98657227 C108.58887939 394.69354248 109.31276855 395.4005127 110.05859375 396.12890625 C110.77716553 396.8257251 111.4957373 397.52254395 112.23608398 398.24047852 C115.65392259 401.97902011 117.0845742 405.62875247 117.2734375 410.66796875 C116.71989655 419.36438843 111.37310495 424.48649622 105.46289062 430.35839844 C104.46215767 431.36438835 104.46215767 431.36438835 103.44120789 432.39070129 C101.24704031 434.59363123 99.04568598 436.78921199 96.84375 438.984375 C95.31175982 440.51771309 93.78006657 442.05134791 92.24865723 443.58526611 C89.04417582 446.79269107 85.83611733 449.99648309 82.62548828 453.19775391 C78.50948069 457.30234824 74.40254243 461.41588156 70.2982254 465.53216171 C67.13973707 468.6978729 63.97650588 471.85881025 60.81181335 475.01831818 C59.29527444 476.53352278 57.78022021 478.05021489 56.26667786 479.56841278 C54.15328772 481.68687711 52.03360091 483.79883258 49.91210938 485.90917969 C49.2875737 486.53776382 48.66303802 487.16634796 48.01957703 487.8139801 C47.43928238 488.3886351 46.85898773 488.9632901 46.2611084 489.55535889 C45.76116112 490.05455212 45.26121384 490.55374535 44.74611664 491.06806564 C40.95882201 494.24379555 37.69096879 494.69314139 32.8125 494.75 C31.71164062 494.77835937 30.61078125 494.80671875 29.4765625 494.8359375 C21.75760631 493.75418354 16.44784147 486.95684096 11.17578125 481.69921875 C10.3257402 480.8558345 9.47569916 480.01245026 8.59989929 479.14350891 C6.80965896 477.36336637 5.02209808 475.58052562 3.23706055 473.79516602 C0.5092895 471.07177458 -2.23407515 468.36478246 -4.97851562 465.65820312 C-6.71972921 463.92285697 -8.45999594 462.18656012 -10.19921875 460.44921875 C-11.01798996 459.64481857 -11.83676117 458.8404184 -12.68034363 458.01164246 C-18.16831923 452.47930506 -21.3685555 448.37050046 -22.25 440.4375 C-21.8266117 431.50877639 -15.60543113 425.61418932 -9.546875 419.71875 C-8.75347717 418.93101196 -7.96007935 418.14327393 -7.14263916 417.33166504 C-4.62521872 414.83649961 -2.09420281 412.3556643 0.4375 409.875 C2.15456549 408.17801336 3.87072136 406.48010582 5.5859375 404.78125 C9.77599151 400.63511905 13.97727472 396.500641 18.1875 392.375 C12.89242138 391.46568863 7.28647734 390.67037674 2.41799927 393.34833145 C-2.08702554 396.69623663 -5.8371928 400.86975749 -9.65625 404.95703125 C-10.91890163 406.25347963 -12.18495883 407.54661905 -13.45422363 408.83659363 C-16.77134018 412.22379416 -20.04549617 415.64952263 -23.31066895 419.08673096 C-27.92358477 423.92763436 -32.59246939 428.71466382 -37.25646973 433.50627136 C-39.73609684 436.0538197 -42.19861835 438.61623142 -44.64880371 441.1920929 C-45.7755363 442.36489156 -46.90236239 443.53760041 -48.02929688 444.71020508 C-48.52807343 445.24176208 -49.02684998 445.77331909 -49.54074097 446.32098389 C-53.43971962 450.35189713 -57.20342036 452.99790646 -62.8125 453.80859375 C-64.2975 453.81052734 -64.2975 453.81052734 -65.8125 453.8125 C-67.2975 453.84150391 -67.2975 453.84150391 -68.8125 453.87109375 C-76.45458469 452.6073636 -81.85152497 445.64244269 -87.078125 440.41015625 C-87.95273376 439.53983261 -88.82734253 438.66950897 -89.72845459 437.77281189 C-91.56988583 435.93710826 -93.40872272 434.09879894 -95.24511719 432.25805664 C-98.05796153 429.44204358 -100.88388962 426.63963559 -103.7109375 423.83789062 C-105.50081026 422.05029009 -107.28989993 420.26190505 -109.078125 418.47265625 C-109.92393127 417.63605972 -110.76973755 416.7994632 -111.64117432 415.93751526 C-112.42248718 415.1499736 -113.20380005 414.36243195 -114.00878906 413.55102539 C-115.04087494 412.51988365 -115.04087494 412.51988365 -116.09381104 411.46791077 C-119.22336706 407.65693529 -120.08166631 404.10543327 -120 399.25 C-119.99355469 398.40179688 -119.98710938 397.55359375 -119.98046875 396.6796875 C-119.8125 394.375 -119.8125 394.375 -118.8125 391.375 C-120.5140625 391.4059375 -120.5140625 391.4059375 -122.25 391.4375 C-125.8125 391.375 -125.8125 391.375 -126.8125 390.375 C-126.9375 387.875 -126.9375 387.875 -126.8125 385.375 C-126.4825 385.045 -126.1525 384.715 -125.8125 384.375 C-124.89581543 384.3764502 -123.97913086 384.37790039 -123.03466797 384.37939453 C-114.41055088 384.38757126 -109.6858737 382.93651002 -103.47265625 376.91015625 C-102.63605469 376.03230469 -101.79945313 375.15445312 -100.9375 374.25 C-100.04675781 373.42628906 -99.15601563 372.60257812 -98.23828125 371.75390625 C-93.70351391 367.16341212 -91.3624361 363.70535118 -91.1947937 357.26541138 C-91.26303919 354.28453787 -91.48463034 351.33780391 -91.8125 348.375 C-92.20816162 348.78176468 -92.60382324 349.18852936 -93.01147461 349.60762024 C-97.14963907 353.85680845 -101.30562152 358.08796828 -105.47216797 362.30932617 C-107.02266411 363.88489292 -108.56863392 365.46492781 -110.10986328 367.04956055 C-112.33217591 369.33284689 -114.57052839 371.5993151 -116.8125 373.86328125 C-117.49304443 374.56963211 -118.17358887 375.27598297 -118.87475586 376.0037384 C-123.75653449 380.88831007 -128.24690485 383.98868041 -135.3515625 384.58984375 C-136.03992188 384.49832031 -136.72828125 384.40679687 -137.4375 384.3125 C-138.13101563 384.23902344 -138.82453125 384.16554688 -139.5390625 384.08984375 C-146.74513317 381.8240174 -151.89975227 375.59416292 -157.078125 370.41015625 C-157.95273376 369.53983261 -158.82734253 368.66950897 -159.72845459 367.77281189 C-161.56988583 365.93710826 -163.40872272 364.09879894 -165.24511719 362.25805664 C-168.05796153 359.44204358 -170.88388962 356.63963559 -173.7109375 353.83789062 C-175.50081026 352.05029009 -177.28989993 350.26190505 -179.078125 348.47265625 C-179.92393127 347.63605972 -180.76973755 346.7994632 -181.64117432 345.93751526 C-182.42248718 345.1499736 -183.20380005 344.36243195 -184.00878906 343.55102539 C-184.69684631 342.86359756 -185.38490356 342.17616974 -186.09381104 341.46791077 C-188.92908232 338.01529664 -190.10640172 334.49857611 -190.1875 330.0625 C-190.21585938 329.36511719 -190.24421875 328.66773438 -190.2734375 327.94921875 C-188.94800249 320.54700118 -184.33005938 315.30712318 -179.13549805 310.18041992 C-178.47316162 309.51107422 -177.8108252 308.84172852 -177.12841797 308.15209961 C-174.95358359 305.95977356 -172.7645804 303.7822732 -170.57421875 301.60546875 C-169.04912319 300.07767609 -167.52462162 298.54929028 -166.00068665 297.02033997 C-162.81201219 293.82578264 -159.61625183 290.63853579 -156.4152832 287.45629883 C-152.31951924 283.38334228 -148.24200217 279.29266406 -144.16961956 275.19634533 C-141.02753011 272.03978213 -137.87595134 268.8928322 -134.72144508 265.74868202 C-133.21426844 264.24416725 -131.71003969 262.73669322 -130.20886803 261.22618675 C-128.10801975 259.11514555 -125.99471264 257.01740717 -123.87768555 254.92260742 C-122.95706078 253.98983727 -122.95706078 253.98983727 -122.01783752 253.03822327 C-117.10875194 248.22388318 -112.8673421 245.7144269 -105.875 244.9375 C-98.01413021 245.28198995 -92.34256618 250.25821006 -87.125 255.671875 C-86.53702637 256.26550842 -85.94905273 256.85914185 -85.34326172 257.47076416 C-83.48996454 259.34623322 -81.65116438 261.2351946 -79.8125 263.125 C-78.54911437 264.40847537 -77.28479944 265.6910367 -76.01953125 266.97265625 C-72.93968493 270.09631482 -69.87274913 273.23214448 -66.8125 276.375 C-65.93207031 275.96507812 -65.05164063 275.55515625 -64.14453125 275.1328125 C-62.40236328 274.32457031 -62.40236328 274.32457031 -60.625 273.5 C-59.47644531 272.96632813 -58.32789063 272.43265625 -57.14453125 271.8828125 C-54.38955863 270.63613087 -51.63088323 269.46838408 -48.8125 268.375 C-49.2067366 267.98742523 -49.60097321 267.59985046 -50.00715637 267.20053101 C-54.12044107 263.15377771 -58.22299934 259.09637545 -62.31958008 255.03271484 C-63.84844619 253.51890587 -65.37999792 252.00780411 -66.91430664 250.49951172 C-69.12322543 248.3271099 -71.32220307 246.14505472 -73.51953125 243.9609375 C-74.20400833 243.29194427 -74.88848541 242.62295105 -75.59370422 241.9336853 C-81.37416178 236.15527292 -84.73125961 230.67776775 -84.8125 222.375 C-83.70884028 212.44206251 -73.66163108 205.15371776 -66.73828125 198.625 C-64.84462965 196.82021646 -62.95249357 195.01385747 -61.06079102 193.20703125 C-59.75983758 191.97580984 -58.4493953 190.75454501 -57.13012695 189.54296875 C-49.46923984 183.11699706 -49.46923984 183.11699706 -45.41796875 174.53051758 C-45.95600725 171.96191982 -46.77999076 169.78123744 -47.8125 167.375 C-48.88397625 155.25236753 -46.28035454 145.50605989 -41.8125 134.375 C-42.28190506 133.91003616 -42.75131012 133.44507233 -43.23493958 132.96601868 C-48.12370984 128.12152814 -53.00539987 123.26998604 -57.88305664 118.41430664 C-59.70384353 116.60357129 -61.52642223 114.79463583 -63.35083008 112.98754883 C-65.97431079 110.38835299 -68.59125953 107.78273229 -71.20703125 105.17578125 C-72.02275101 104.37038406 -72.83847076 103.56498688 -73.6789093 102.73518372 C-74.43947128 101.9747728 -75.20003326 101.21436188 -75.98364258 100.4309082 C-76.65204666 99.76694534 -77.32045074 99.10298248 -78.0091095 98.41889954 C-82.00702739 93.88779964 -83.61511226 89.9903876 -84.0625 84.0625 C-83.5138601 75.97006153 -79.56372216 71.54401974 -74.01782227 66.09448242 C-73.33130585 65.40416931 -72.64478943 64.7138562 -71.93746948 64.00262451 C-69.67758751 61.73536457 -67.40368412 59.48277524 -65.12890625 57.23046875 C-63.55020934 55.65415747 -61.9722526 54.07710459 -60.39500427 52.49934387 C-57.09329758 49.20076025 -53.78499576 45.90898973 -50.47143555 42.62231445 C-46.22304186 38.4079552 -41.9879886 34.18049418 -37.75734043 29.94832897 C-34.50231603 26.69384811 -31.24210763 23.44460348 -27.98011589 20.19710732 C-26.41640613 18.63976295 -24.85390566 17.08120338 -23.29263496 15.5214138 C-21.11226206 13.34537332 -18.92543289 11.17604315 -16.73657227 9.00854492 C-15.76935997 8.03997307 -15.76935997 8.03997307 -14.78260803 7.05183411 C-14.18403992 6.46179596 -13.5854718 5.87175781 -12.96876526 5.26383972 C-12.45277047 4.75119662 -11.93677568 4.23855352 -11.40514469 3.71037579 C-7.77865745 0.66969554 -4.67768104 0.06004725 0 0 Z " fill="#1F2023" transform="translate(239.8125,8.625)"/>
<path d="M0 0 C0.80179687 -0.02835937 1.60359375 -0.05671875 2.4296875 -0.0859375 C10.39719288 1.27662139 15.79553991 7.60620228 21.234375 13.0859375 C22.0830011 13.93169342 22.9316272 14.77744934 23.80596924 15.64883423 C25.5912951 17.43212547 27.37286557 19.21918341 29.15087891 21.00976562 C31.86944675 23.7444139 34.60366624 26.46267159 37.33984375 29.1796875 C39.0764837 30.9183096 40.81219296 32.65786193 42.546875 34.3984375 C43.36250916 35.20799896 44.17814331 36.01756042 45.01849365 36.85165405 C50.09609638 41.9926037 54.5500057 46.62847877 54.5625 54.25 C54.58183594 55.03117187 54.60117188 55.81234375 54.62109375 56.6171875 C52.92923967 66.02229756 46.17356324 71.89317966 39.66845703 78.33325195 C38.59303562 79.4124616 37.5184734 80.49252801 36.44470215 81.57337952 C33.5405905 84.49139452 30.62413502 87.3967685 27.70481348 90.29955697 C24.64503705 93.34543393 21.59547576 96.40150963 18.54440308 99.45610046 C13.42183901 104.58136216 8.29126742 109.6984989 3.15576172 114.81079102 C-2.77599731 120.71592191 -8.69520437 126.63340876 -14.60779083 132.55773193 C-20.30537659 138.26610587 -26.01142325 143.96594823 -31.72146988 149.6618557 C-34.14748338 152.0821206 -36.57056533 154.50526513 -38.99132919 156.93078041 C-41.8425018 159.78673413 -44.70103802 162.63511021 -47.56536865 165.47786522 C-48.61361174 166.52055654 -49.65933737 167.56578594 -50.70230484 168.61375427 C-52.12937463 170.04680552 -53.56664871 171.46967324 -55.00436401 172.89204407 C-55.80481581 173.69006597 -56.6052676 174.48808786 -57.42997551 175.31029224 C-62.26248809 179.39112098 -67.51527349 181.52813867 -73.875 181.375 C-82.03739644 180.0423203 -86.80388974 175.28475231 -92.3984375 169.54296875 C-93.26642975 168.67360184 -94.134422 167.80423492 -95.02871704 166.90852356 C-96.85263137 165.07558077 -98.66928409 163.23538657 -100.47900391 161.38842773 C-103.24625778 158.5663164 -106.0368595 155.76904439 -108.83203125 152.97460938 C-110.60558976 151.18630607 -112.37777332 149.39663788 -114.1484375 147.60546875 C-114.97967133 146.77089645 -115.81090515 145.93632416 -116.66732788 145.07646179 C-122.12208756 139.48638865 -126.38847477 134.48375384 -126.875 126.375 C-125.38289804 114.81120979 -115.1114873 107.45846526 -107.24560547 99.58447266 C-106.18847102 98.52269959 -105.13153069 97.46073323 -104.07476807 96.39859009 C-101.22620256 93.53701245 -98.37440328 90.67868027 -95.52155828 87.82136965 C-93.73722471 86.03409152 -91.95347391 84.24623374 -90.16989517 82.45820236 C-84.58241737 76.85708886 -78.99297026 71.25795187 -73.4006089 65.6617142 C-66.95579485 59.21240705 -60.517598 52.75658806 -54.0849961 46.29510081 C-49.10072669 41.28922996 -44.11072201 36.28912411 -39.11630929 31.29337347 C-36.13752376 28.31354026 -33.1612152 25.33132967 -30.19085312 22.34309769 C-27.40174096 19.53752811 -24.60558254 16.7391796 -21.80384064 13.94622421 C-20.77771744 12.92087221 -19.75415236 11.89295275 -18.73336411 10.86228943 C-17.33895705 9.45518717 -15.93434969 8.05821511 -14.52926636 6.66177368 C-13.74653791 5.87757868 -12.96380947 5.09338367 -12.15736198 4.28542519 C-8.4075421 1.14668103 -4.83719645 0.07727151 0 0 Z " fill="#DD6BE1" transform="translate(134.875,113.625)"/>
<path d="M0 0 C5.47452696 2.86303925 9.50458366 7.16682102 13.79833984 11.53515625 C14.67011871 12.40785156 15.54189758 13.28054687 16.44009399 14.1796875 C18.27179024 16.01740184 20.09864759 17.85995058 21.92089844 19.70703125 C24.71362536 22.53639531 27.52215161 25.34930249 30.33349609 28.16015625 C32.11439272 29.95087992 33.89437304 31.74251543 35.67333984 33.53515625 C36.51287201 34.37691406 37.35240417 35.21867187 38.21737671 36.0859375 C38.99223419 36.87355469 39.76709167 37.66117187 40.56542969 38.47265625 C41.58846695 39.50712891 41.58846695 39.50712891 42.63217163 40.5625 C46.08058431 44.55171552 46.65139412 47.67565093 46.71240234 52.91015625 C46.74076172 54.01101563 46.76912109 55.111875 46.79833984 56.24609375 C45.97369139 62.13044966 41.94501058 66.17388592 37.94470215 70.35678101 C37.07093933 71.27375763 36.19717651 72.19073425 35.29693604 73.13549805 C34.33601936 74.13398536 33.37489168 75.13226964 32.41357422 76.13037109 C31.39418579 77.19508762 30.37500596 78.2600039 29.35601807 79.32510376 C20.04456943 89.04066998 10.64146001 98.66816746 1.21526337 108.27229881 C-5.10721815 114.71681549 -11.4006814 121.18499355 -17.62744141 127.72216797 C-23.07657632 133.44293238 -28.57453498 139.11116485 -34.13524199 144.7236191 C-37.06910593 147.68798879 -39.97480126 150.67066611 -42.82325745 153.71738815 C-62.36801 174.56608926 -62.36801 174.56608926 -77.45641327 175.11507607 C-82.92567747 174.94929795 -88.27042377 174.46519124 -93.66259766 173.53515625 C-94.5825863 170.12907606 -94.76107564 167.1837826 -94.71264648 163.64355469 C-94.69966019 162.45421326 -94.68667389 161.26487183 -94.67329407 160.03948975 C-94.65558456 158.75415344 -94.63787506 157.46881714 -94.61962891 156.14453125 C-94.6075837 154.7985318 -94.59659005 153.45252257 -94.58659363 152.10650635 C-94.54408616 146.40803659 -94.49725637 140.70978221 -94.41577148 135.01171875 C-93.91222237 110.91015658 -93.91222237 110.91015658 -100.23518372 87.84344482 C-100.70623032 86.75170959 -101.17727692 85.65997437 -101.66259766 84.53515625 C-90.97389228 73.75290609 -80.2736613 62.98219094 -69.55971432 52.22502422 C-64.58502485 47.22973144 -59.61413608 42.23076477 -54.65209961 37.22290039 C-49.86315409 32.38974686 -45.0637578 27.5671759 -40.25784492 22.75089455 C-38.42633515 20.91199597 -36.59834876 19.06958117 -34.77396965 17.22360802 C-32.21736724 14.63795595 -29.64850444 12.06510799 -27.07641602 9.49487305 C-26.32547165 8.72954758 -25.57452728 7.96422211 -24.80082703 7.17570496 C-17.56117744 -0.00771794 -10.14091723 -4.05582611 0 0 Z " fill="#DD6BE1" transform="translate(456.66259765625,219.46484375)"/>
<path d="M0 0 C0.81339844 -0.01675781 1.62679687 -0.03351563 2.46484375 -0.05078125 C10.36189227 1.05361802 15.21588115 7.04548255 20.546875 12.43359375 C21.44367981 13.32990005 22.34048462 14.22620636 23.26446533 15.14967346 C25.15414229 17.04168643 27.04064924 18.93630423 28.92236328 20.83618164 C31.33030135 23.26685438 33.74920884 25.68624569 36.1719017 28.10220242 C38.48963209 30.41578365 40.79926949 32.73740275 43.109375 35.05859375 C43.97705505 35.9253624 44.84473511 36.79213104 45.7387085 37.68516541 C46.54004211 38.49603104 47.34137573 39.30689667 48.16699219 40.14233398 C49.2257254 41.20797829 49.2257254 41.20797829 50.30584717 42.29515076 C53.56519058 46.03819768 54.40784839 49.07047983 54.5625 54 C54.6140625 54.97324219 54.665625 55.94648438 54.71875 56.94921875 C52.55250977 68.05119993 41.1788647 76.6327513 33.50390625 84.26953125 C32.07149712 85.70396451 30.63953331 87.13884258 29.20799255 88.57414246 C26.21797198 91.5685675 23.22263989 94.557546 20.22338867 97.54272461 C16.38898755 101.36000423 12.56825569 105.19063805 8.7513895 109.02544117 C5.80135593 111.98633677 2.84418786 114.94002367 -0.11515999 117.89160728 C-1.5266922 119.30114581 -2.93602021 120.71289539 -4.34304619 122.12693214 C-6.31192205 124.10346557 -8.29022789 126.07006428 -10.27124023 128.03442383 C-10.84444504 128.61370132 -11.41764984 129.19297882 -12.00822449 129.78981018 C-16.28169876 133.99729941 -20.72962088 137.71322588 -26.78125 138.84375 C-27.6578125 138.8334375 -28.534375 138.823125 -29.4375 138.8125 C-30.75234375 138.82796875 -30.75234375 138.82796875 -32.09375 138.84375 C-40.19422193 137.33047502 -45.52676739 131.149625 -51.08203125 125.53125 C-51.93302902 124.68075073 -52.78402679 123.83025146 -53.66081238 122.95397949 C-55.4502533 121.16220628 -57.23602217 119.36675913 -59.01831055 117.56787109 C-61.7495067 114.81299758 -64.49386672 112.07177169 -67.24023438 109.33203125 C-68.97996164 107.58672957 -70.7189209 105.84066193 -72.45703125 104.09375 C-73.27782669 103.27386597 -74.09862213 102.45398193 -74.94429016 101.60925293 C-76.0813868 100.45785828 -76.0813868 100.45785828 -77.24145508 99.28320312 C-77.90873123 98.61131958 -78.57600739 97.93943604 -79.26350403 97.24719238 C-82.47398016 93.53673918 -83.28826234 90.27651065 -83.75 85.4375 C-83.91435547 83.92542969 -83.91435547 83.92542969 -84.08203125 82.3828125 C-83.74568941 75.23782103 -78.95075217 70.89246947 -74.15869141 66.14550781 C-73.47378128 65.45534073 -72.78887115 64.76517365 -72.08320618 64.05409241 C-69.82596031 61.78368439 -67.5579671 59.52437761 -65.2890625 57.265625 C-63.71305166 55.68759259 -62.13748634 54.10911513 -60.56234741 52.5302124 C-57.26354396 49.2269909 -53.95938734 45.92924451 -50.65136719 42.63525391 C-46.41201394 38.41300591 -42.18628933 34.17741446 -37.96447182 29.93764114 C-34.71511837 26.67744805 -31.45865452 23.42443302 -28.19999313 20.17354584 C-26.63887677 18.61443023 -25.07998453 17.05308435 -23.52336502 15.48947906 C-21.3477861 13.30628156 -19.16282173 11.13293197 -16.97509766 8.96191406 C-16.33388474 8.31462845 -15.69267181 7.66734283 -15.0320282 7.0004425 C-10.39939428 2.43313088 -6.68876694 0.03170032 0 0 Z " fill="#DD6AE1" transform="translate(407.9375,119.6875)"/>
<path d="M0 0 C0.99644531 -0.02835938 1.99289063 -0.05671875 3.01953125 -0.0859375 C11.2339822 1.10926005 16.67346096 7.38030268 22.296875 12.98046875 C23.1455011 13.81910965 23.9941272 14.65775055 24.86846924 15.52180481 C26.65403861 17.29223579 28.43560431 19.06671276 30.21337891 20.8449707 C32.92702202 23.55204737 35.66374637 26.23421623 38.40234375 28.91601562 C40.13948908 30.64435887 41.87521478 32.37413037 43.609375 34.10546875 C44.42500916 34.89954636 45.24064331 35.69362396 46.08099365 36.51176453 C51.30872995 41.80315799 54.95393886 46.80890822 55.27484131 54.45646667 C54.39167356 66.50109404 43.31049689 75.09158946 35.4387207 83.11914062 C33.82057828 84.78183097 32.21775011 86.45957187 30.63110352 88.15234375 C14.47021435 105.38704057 14.47021435 105.38704057 0.90405273 106.13525391 C-12.53997425 107.00249653 -25.11275881 115.96442385 -33.875 125.6875 C-34.54660156 126.48800781 -35.21820313 127.28851563 -35.91015625 128.11328125 C-37.77408823 130.3293318 -39.75394897 132.34102868 -41.8125 134.375 C-47.17640633 129.06184367 -52.53242449 123.74083033 -57.88305664 118.41430664 C-59.70384353 116.60357129 -61.52642223 114.79463583 -63.35083008 112.98754883 C-65.97431079 110.38835299 -68.59125953 107.78273229 -71.20703125 105.17578125 C-72.02275101 104.37038406 -72.83847076 103.56498688 -73.6789093 102.73518372 C-74.43947128 101.9747728 -75.20003326 101.21436188 -75.98364258 100.4309082 C-76.65204666 99.76694534 -77.32045074 99.10298248 -78.0091095 98.41889954 C-82.00702739 93.88779964 -83.61511226 89.9903876 -84.0625 84.0625 C-83.5138601 75.97006153 -79.56372216 71.54401974 -74.01782227 66.09448242 C-73.33130585 65.40416931 -72.64478943 64.7138562 -71.93746948 64.00262451 C-69.67758751 61.73536457 -67.40368412 59.48277524 -65.12890625 57.23046875 C-63.55020934 55.65415747 -61.9722526 54.07710459 -60.39500427 52.49934387 C-57.09329758 49.20076025 -53.78499576 45.90898973 -50.47143555 42.62231445 C-46.22304186 38.4079552 -41.9879886 34.18049418 -37.75734043 29.94832897 C-34.50231603 26.69384811 -31.24210763 23.44460348 -27.98011589 20.19710732 C-26.41640613 18.63976295 -24.85390566 17.08120338 -23.29263496 15.5214138 C-21.11226206 13.34537332 -18.92543289 11.17604315 -16.73657227 9.00854492 C-16.09176407 8.36283035 -15.44695587 7.71711578 -14.78260803 7.05183411 C-14.18403992 6.46179596 -13.5854718 5.87175781 -12.96876526 5.26383972 C-12.45277047 4.75119662 -11.93677568 4.23855352 -11.40514469 3.71037579 C-7.77865745 0.66969554 -4.67768104 0.06004725 0 0 Z " fill="#DC6BE0" transform="translate(239.8125,8.625)"/>
<path d="M0 0 C4.32720245 2.2597279 7.48511593 5.17011371 10.8515625 8.66308594 C11.43953613 9.25671936 12.02750977 9.85035278 12.63330078 10.4619751 C14.48659796 12.33744416 16.32539812 14.22640554 18.1640625 16.11621094 C19.42744813 17.39968631 20.69176306 18.68224763 21.95703125 19.96386719 C25.03687757 23.08752576 28.10381337 26.22335541 31.1640625 29.36621094 C29.66001348 32.56979437 28.37515901 34.17381375 25.5390625 36.30371094 C15.72637926 44.65341231 10.03942558 57.76618642 8.1640625 70.36621094 C8.39948921 72.32580724 8.69856181 74.27827359 9.04296875 76.22167969 C10.26895284 86.87513497 10.57303194 96.2079201 3.91308594 105.05371094 C-0.2192335 110.02945088 -4.7311817 114.58244594 -9.3984375 119.05371094 C-10.17581268 119.8013974 -10.95318787 120.54908386 -11.75411987 121.31942749 C-14.02739 123.47399768 -16.32714698 125.59207599 -18.65234375 127.69042969 C-19.70145432 128.64000549 -19.70145432 128.64000549 -20.77175903 129.60876465 C-25.75159004 133.91134339 -30.63290464 137.0105697 -37.375 137.58105469 C-38.06335938 137.48953125 -38.75171875 137.39800781 -39.4609375 137.30371094 C-40.15445313 137.23023438 -40.84796875 137.15675781 -41.5625 137.08105469 C-48.76857067 134.81522834 -53.92318977 128.58537386 -59.1015625 123.40136719 C-59.97617126 122.53104355 -60.85078003 121.66071991 -61.75189209 120.76402283 C-63.59332333 118.92831919 -65.43216022 117.09000988 -67.26855469 115.24926758 C-70.08139903 112.43325452 -72.90732712 109.63084653 -75.734375 106.82910156 C-77.52424776 105.04150103 -79.31333743 103.25311598 -81.1015625 101.46386719 C-81.94736877 100.62727066 -82.79317505 99.79067413 -83.66461182 98.9287262 C-84.83658112 97.74741371 -84.83658112 97.74741371 -86.03222656 96.54223633 C-86.72028381 95.8548085 -87.40834106 95.16738068 -88.11724854 94.4591217 C-90.95251982 91.00650758 -92.12983922 87.48978705 -92.2109375 83.05371094 C-92.23929688 82.35632813 -92.26765625 81.65894531 -92.296875 80.94042969 C-90.97143999 73.53821212 -86.35349688 68.29833411 -81.15893555 63.17163086 C-80.49659912 62.50228516 -79.8342627 61.83293945 -79.15185547 61.14331055 C-76.97702109 58.9509845 -74.7880179 56.77348414 -72.59765625 54.59667969 C-71.07256069 53.06888703 -69.54805912 51.54050122 -68.02412415 50.0115509 C-64.83544969 46.81699358 -61.63968933 43.62974673 -58.4387207 40.44750977 C-54.34295674 36.37455322 -50.26543967 32.283875 -46.19305706 28.18755627 C-43.05096761 25.03099307 -39.89938884 21.88404314 -36.74488258 18.73989296 C-35.23770594 17.23537819 -33.73347719 15.72790415 -32.23230553 14.21739769 C-30.13145725 12.10635649 -28.01815014 10.00861811 -25.90112305 7.91381836 C-25.2873732 7.29197159 -24.67362335 6.67012482 -24.04127502 6.0294342 C-17.33068198 -0.5516442 -9.09953424 -4.43287701 0 0 Z " fill="#DD6BE1" transform="translate(141.8359375,255.6337890625)"/>
<path d="M0 0 C0.97865776 0.0128302 1.95731552 0.0256604 2.96562958 0.03887939 C9.60515994 0.13149505 16.22768306 0.36561864 22.859375 0.6953125 C24.1659009 0.7460108 24.1659009 0.7460108 25.49882126 0.79773331 C40.79691974 1.47273138 40.79691974 1.47273138 46.76660156 7.26123047 C51.27902373 12.64522157 53.62534789 17.4234314 53.1875 24.5 C52.4148289 31.79293076 46.45540978 36.96033741 41.52539062 41.85839844 C40.85823532 42.52905838 40.19108002 43.19971832 39.50370789 43.89070129 C37.30954031 46.09363123 35.10818598 48.28921199 32.90625 50.484375 C31.37425982 52.01771309 29.84256657 53.55134791 28.31115723 55.08526611 C25.10667582 58.29269107 21.89861733 61.49648309 18.68798828 64.69775391 C14.57198069 68.80234824 10.46504243 72.91588156 6.3607254 77.03216171 C3.20223707 80.1978729 0.03900588 83.35881025 -3.12568665 86.51831818 C-4.64222556 88.03352278 -6.15727979 89.55021489 -7.67082214 91.06841278 C-9.78421228 93.18687711 -11.90389909 95.29883258 -14.02539062 97.40917969 C-14.6499263 98.03776382 -15.27446198 98.66634796 -15.91792297 99.3139801 C-16.49821762 99.8886351 -17.07851227 100.4632901 -17.6763916 101.05535889 C-18.17633888 101.55455212 -18.67628616 102.05374535 -19.19138336 102.56806564 C-22.97867799 105.74379555 -26.24653121 106.19314139 -31.125 106.25 C-32.22585938 106.27835937 -33.32671875 106.30671875 -34.4609375 106.3359375 C-42.17989369 105.25418354 -47.48965853 98.45684096 -52.76171875 93.19921875 C-53.6117598 92.3558345 -54.46180084 91.51245026 -55.33760071 90.64350891 C-57.12784104 88.86336637 -58.91540192 87.08052562 -60.70043945 85.29516602 C-63.4282105 82.57177458 -66.17157515 79.86478246 -68.91601562 77.15820312 C-70.65722921 75.42285697 -72.39749594 73.68656012 -74.13671875 71.94921875 C-74.95548996 71.14481857 -75.77426117 70.3404184 -76.61784363 69.51164246 C-82.10581923 63.97930506 -85.3060555 59.87050046 -86.1875 51.9375 C-85.60416815 38.0633481 -70.5492029 22.29450186 -61.27026367 13.259552 C-43.85773487 -1.90599296 -21.90582277 -0.40293209 0 0 Z " fill="#DD6BE1" transform="translate(303.75,397.125)"/>
<path d="M0 0 C1.4025 0.495 2.805 0.99 4.25 1.5 C16.43123723 4.81354899 30.15968926 4.1789332 42 0 C42.495 5.94 42.495 5.94 43 12 C57.85 12.495 57.85 12.495 73 13 C70.24286225 15.75713775 68.20745383 17.69341366 65.0859375 19.77734375 C64.33425293 20.28402588 63.58256836 20.79070801 62.80810547 21.31274414 C62.00518066 21.84891357 61.20225586 22.38508301 60.375 22.9375 C53.79966896 27.38010382 47.29263478 31.8948089 40.875 36.5625 C34.4173975 41.25772394 27.92219205 45.89259666 21.38964844 50.48291016 C16.2675721 54.08869117 11.1915474 57.75424069 6.125 61.4375 C-0.8531414 66.50603378 -7.93617354 71.40020804 -15.07202148 76.2434082 C-23.30731233 81.85196212 -31.46364081 87.62769582 -39.28515625 93.8046875 C-41 95 -41 95 -43 95 C-43.33 91.37 -43.66 87.74 -44 84 C-45.32 83.67 -46.64 83.34 -48 83 C-50.10669459 85.10669459 -49.25892489 89.71256289 -49.31640625 92.62890625 C-49.33718735 93.49313705 -49.35796844 94.35736786 -49.37937927 95.24778748 C-49.44497114 98.01927445 -49.50380418 100.79085921 -49.5625 103.5625 C-49.60567608 105.43685923 -49.64929006 107.31120843 -49.69335938 109.18554688 C-49.80066227 113.79026336 -49.90190215 118.39507858 -50 123 C-53.89543877 123.14553599 -57.79017651 123.23415059 -61.6875 123.3125 C-62.79029297 123.35439453 -63.89308594 123.39628906 -65.02929688 123.43945312 C-66.6293457 123.46362305 -66.6293457 123.46362305 -68.26171875 123.48828125 C-69.24100342 123.51446533 -70.22028809 123.54064941 -71.22924805 123.56762695 C-74 123 -74 123 -76.81933594 121.3190918 C-80.31290817 116.00168086 -79.69289396 110.63014198 -79.62890625 104.40625 C-79.62973629 103.05448211 -79.63220078 101.70271433 -79.63621521 100.35095215 C-79.63907121 97.51621129 -79.62440951 94.68226122 -79.59692383 91.84765625 C-79.56310095 88.25132547 -79.56877238 84.656432 -79.5875864 81.06003571 C-79.59827645 78.26457222 -79.5891073 75.46942982 -79.57420158 72.67399597 C-79.56663389 70.71517223 -79.57380653 68.75630885 -79.58143616 66.79748535 C-79.39064927 52.04944685 -74.91189715 38.00858492 -64.625 27.125 C-54.2840391 17.6187355 -42.31177087 12.80217299 -28.34375 12.5859375 C-27.16214294 12.55688828 -27.16214294 12.55688828 -25.95666504 12.5272522 C-23.47121588 12.46806454 -20.98571885 12.42131774 -18.5 12.375 C-16.80206452 12.33676405 -15.10414727 12.29770916 -13.40625 12.2578125 C-9.2709836 12.1624142 -5.13562662 12.07816258 -1 12 C-0.67 8.04 -0.34 4.08 0 0 Z " fill="#FDC675" transform="translate(235,270)"/>
<path d="M0 0 C0.70253906 -0.00773437 1.40507812 -0.01546875 2.12890625 -0.0234375 C9.83302968 1.30620817 14.58581864 7.05581529 19.88671875 12.35546875 C20.78115189 13.24228836 21.67558502 14.12910797 22.59712219 15.0428009 C24.48287376 16.91776516 26.36503967 18.79568504 28.24243164 20.67895508 C30.63628065 23.07869626 33.04786259 25.45969033 35.46477032 27.83617687 C37.78358077 30.12275988 40.08402641 32.42767237 42.38671875 34.73046875 C43.24923752 35.57659225 44.11175629 36.42271576 45.00041199 37.29447937 C50.29620027 42.65177036 53.995114 47.14680187 54.65234375 54.9140625 C54.56082031 55.60242188 54.46929687 56.29078125 54.375 57 C54.30152344 57.69351563 54.22804688 58.38703125 54.15234375 59.1015625 C52.15308812 65.45985089 47.07863734 70.01197981 42.46582031 74.57373047 C41.7727327 75.26711014 41.07964508 75.96048981 40.36555481 76.67488098 C38.08695622 78.9520928 35.80136872 81.22214958 33.515625 83.4921875 C31.92906787 85.07501219 30.34295344 86.65828074 28.75726318 88.24197388 C24.59256433 92.39905453 20.42189324 96.5500926 16.24993896 100.69989014 C11.98981715 104.9395145 7.73538603 109.18484098 3.48046875 113.4296875 C-4.86163583 121.75037416 -13.21006246 130.06468667 -21.5625 138.375 C-22.95068377 135.59863246 -22.08532444 134.47761818 -21.125 131.5625 C-17.19072916 117.69283554 -20.10543866 104.86184821 -26.72265625 92.35546875 C-37.04898164 75.6272601 -52.47108473 68.60551122 -70.5625 63.375 C-64.98334792 56.59517911 -58.8121593 50.42385424 -52.62890625 44.203125 C-52.05841993 43.62856316 -51.48793362 43.05400131 -50.90015984 42.4620285 C-47.88649992 39.42763342 -44.86966424 36.39643601 -41.8503418 33.36767578 C-38.74403046 30.25025738 -35.64958497 27.12132638 -32.55757236 23.98973465 C-30.16466801 21.57065153 -27.76288761 19.16052918 -25.35865593 16.75270844 C-24.2138797 15.60307861 -23.07246777 14.45008797 -21.93460274 13.29361725 C-20.34146549 11.67603624 -18.73605536 10.07165198 -17.12719727 8.46972656 C-16.21929947 7.55596252 -15.31140167 6.64219849 -14.37599182 5.70074463 C-10.16571125 2.22035867 -5.58942134 -0.06176156 0 0 Z " fill="#DD6BE0" transform="translate(338.5625,49.625)"/>
<path d="M0 0 C1.13829431 2.13962808 2.26034158 4.28558999 3.375 6.4375 C3.69210937 7.02982422 4.00921875 7.62214844 4.3359375 8.23242188 C9.10119837 17.51475294 9.32770411 26.75379225 9.37109375 37.046875 C9.38007969 38.38966968 9.38920182 39.73246346 9.39845276 41.07525635 C9.41483632 43.87229837 9.42262486 46.66922209 9.42553711 49.46630859 C9.43095023 53.0431541 9.46879304 56.61888603 9.51428127 60.1954155 C9.54405038 62.96130441 9.55126039 65.72692288 9.55226326 68.49295807 C9.55848469 70.45006823 9.58792723 72.40706032 9.61778259 74.36395264 C9.61170486 75.55579163 9.60562714 76.74763062 9.59936523 77.97558594 C9.60443588 79.02099548 9.60950653 80.06640503 9.61473083 81.14349365 C8.71001798 85.34747673 7.60552144 86.60458654 4 89 C-0.1984392 89.72012193 -4.3430626 89.63092495 -8.59301758 89.56762695 C-9.87146545 89.56835709 -11.14991333 89.56908722 -12.46710205 89.56983948 C-15.96498153 89.57127207 -19.46200093 89.54190934 -22.9596808 89.50696969 C-26.61782594 89.47567921 -30.27599156 89.47277336 -33.93424988 89.46684265 C-40.85809481 89.45131199 -47.78154425 89.41029449 -54.70521516 89.3600952 C-62.58904292 89.30417718 -70.47288973 89.27670913 -78.35686648 89.25161803 C-94.57147571 89.19937759 -110.78568736 89.11145094 -127 89 C-124.44891015 86.40752644 -122.00747766 84.17310097 -118.98046875 82.15234375 C-117.82973877 81.37685181 -117.82973877 81.37685181 -116.65576172 80.58569336 C-115.84123535 80.04178955 -115.02670898 79.49788574 -114.1875 78.9375 C-108.17044834 74.87258889 -102.20762041 70.76341958 -96.375 66.4375 C-89.05159116 61.01121968 -81.61607201 55.75414222 -74.15722656 50.51611328 C-70.60070618 48.01656693 -67.05060227 45.50794239 -63.5 43 C-59.26403277 40.00841805 -55.02713382 37.01821166 -50.78515625 34.03515625 C-43.49027433 28.90172082 -36.22484707 23.73162459 -29 18.5 C-26.76197197 16.88304918 -24.52348068 15.26674307 -22.28466797 13.65087891 C-20.7225306 12.5220936 -19.16171805 11.39147319 -17.60205078 10.25927734 C-15.26043643 8.56176109 -12.912277 6.87369191 -10.5625 5.1875 C-9.84642578 4.66542969 -9.13035156 4.14335937 -8.39257812 3.60546875 C-7.72806641 3.13109375 -7.06355469 2.65671875 -6.37890625 2.16796875 C-5.7969751 1.74797607 -5.21504395 1.3279834 -4.61547852 0.89526367 C-3 0 -3 0 0 0 Z " fill="#E3E6F7" transform="translate(347,304)"/>
<path d="M0 0 C1.42848646 -0.01148483 2.85693119 -0.03188134 4.28515625 -0.06152344 C19.06293897 -0.36800277 19.06293897 -0.36800277 25.96850586 4.29516602 C29.31974421 7.64640436 31.51229269 11.15654979 33.90600586 15.23266602 C37.5159981 21.35954851 40.89991468 26.11444237 47.11303711 29.68188477 C49.87621434 31.72762548 50.83332462 32.76830349 51.69702148 36.13452148 C51.9382866 39.57461142 51.91228786 42.91198928 51.78100586 46.35766602 C51.78680664 47.5287793 51.79260742 48.69989258 51.79858398 49.90649414 C51.64841112 58.3985272 51.64841112 58.3985272 48.55444336 62.47875977 C47.70108398 63.07817383 46.84772461 63.67758789 45.96850586 64.29516602 C44.88569336 65.28516602 44.88569336 65.28516602 43.78100586 66.29516602 C33.60936596 73.52833217 33.60936596 73.52833217 28.93334961 73.11547852 C25.7619242 71.79142417 23.16032719 69.76525662 20.38256836 67.76782227 C15.00415101 64.48681363 9.85090219 63.93447813 3.65600586 63.98266602 C2.52497437 63.99112549 2.52497437 63.99112549 1.37109375 63.99975586 C-6.51914993 64.17178276 -12.01048691 65.54580626 -18.21899414 70.54516602 C-21.6794103 73.26455003 -21.6794103 73.26455003 -24.90649414 73.54516602 C-29.63158616 71.65512921 -33.93280831 69.31651739 -38.03149414 66.29516602 C-38.63735352 65.85962402 -39.24321289 65.42408203 -39.86743164 64.9753418 C-44.08461246 61.47288257 -45.52769004 58.71737524 -46.10180664 53.24047852 C-46.17319147 50.9680889 -46.18959535 48.69343562 -46.15649414 46.42016602 C-46.1481958 45.24647461 -46.13989746 44.0727832 -46.13134766 42.86352539 C-45.71677966 33.3224142 -45.71677966 33.3224142 -42.80102539 29.94360352 C-39.96899414 27.79516602 -39.96899414 27.79516602 -36.92602539 26.01782227 C-31.57149942 22.83112058 -28.82036265 17.31355182 -25.70727539 12.06079102 C-19.1840288 1.11326046 -12.19201748 0.06818957 0 0 Z " fill="#FDC575" transform="translate(253.031494140625,159.704833984375)"/>
<path d="M0 0 C40.59 0 81.18 0 123 0 C119.26199123 4.36101024 115.65961121 8.47076961 111.640625 12.52050781 C111.14220093 13.02389679 110.64377686 13.52728577 110.13024902 14.04592896 C108.50621501 15.68438395 106.87847703 17.3190866 105.25 18.953125 C104.40894714 19.79841892 104.40894714 19.79841892 103.55090332 20.66078949 C100.59001394 23.63658101 97.62632992 26.60955408 94.66015625 29.58007812 C91.60707664 32.63866355 88.56340337 35.70643494 85.52178955 38.77641678 C83.16931934 41.1475363 80.81014292 43.51189638 78.44909668 45.87447357 C77.32392775 47.00265872 76.20124783 48.13333217 75.08117676 49.26657867 C73.5142722 50.85060968 71.93809455 52.42482616 70.359375 53.99707031 C69.46702148 54.89306946 68.57466797 55.7890686 67.65527344 56.71221924 C63.07499957 60.65857832 59.03580797 62.42964088 53 62.4375 C52.01 62.45683594 51.02 62.47617187 50 62.49609375 C42.35791531 61.2323636 36.96097503 54.26744269 31.734375 49.03515625 C30.85976624 48.16483261 29.98515747 47.29450897 29.08404541 46.39781189 C27.24261417 44.56210826 25.40377728 42.72379894 23.56738281 40.88305664 C20.75453847 38.06704358 17.92861038 35.26463559 15.1015625 32.46289062 C13.31168974 30.67529009 11.52260007 28.88690505 9.734375 27.09765625 C8.88856873 26.26105972 8.04276245 25.4244632 7.17132568 24.56251526 C6.39001282 23.7749736 5.60869995 22.98743195 4.80371094 22.17602539 C4.11565369 21.48859756 3.42759644 20.80116974 2.71868896 20.09291077 C-0.41086706 16.28193529 -1.26916631 12.73043327 -1.1875 7.875 C-1.18105469 7.02679688 -1.17460938 6.17859375 -1.16796875 5.3046875 C-1 3 -1 3 0 0 Z " fill="#DD6AE1" transform="translate(121,400)"/>
<path d="M0 0 C6.3267668 2.71269784 11.94155967 6.35170348 17 11 C15.60340563 15.1897831 12.60485341 16.55215213 9.0625 18.875 C7.58851684 19.86391051 6.11590987 20.85487465 4.64453125 21.84765625 C3.87705566 22.36473145 3.10958008 22.88180664 2.31884766 23.41455078 C-1.4242095 25.97376464 -5.08584875 28.64209254 -8.75 31.3125 C-17.62385002 37.7605231 -26.60566221 44.04744376 -35.60107422 50.32421875 C-45.08421407 56.94871213 -54.51642081 63.63818501 -63.875 70.4375 C-70.85674095 75.50830501 -77.94242336 80.40616285 -85.08300781 85.25 C-90.17291379 88.71492978 -95.17348985 92.27798913 -100.125 95.9375 C-100.7447168 96.38859131 -101.36443359 96.83968262 -102.00292969 97.30444336 C-104.52845648 99.14554274 -106.98369422 100.98609292 -109.36328125 103.015625 C-116.19301969 108.52057425 -123.6625254 107.55242163 -132 107 C-133.13815736 100.32414135 -134.13670145 93.56390618 -132 87 C-127.84485952 81.68657385 -121.44163377 78.69843638 -115.62939453 75.5078125 C-111.54416091 73.16515671 -107.82999264 70.37809394 -104.0625 67.5625 C-102.57745913 66.47910894 -101.09045535 65.3984037 -99.6015625 64.3203125 C-98.85293945 63.77793945 -98.10431641 63.23556641 -97.33300781 62.67675781 C-93.2275204 59.72609984 -89.08304807 56.83147942 -84.9375 53.9375 C-83.67909302 53.05892334 -83.67909302 53.05892334 -82.39526367 52.16259766 C-80.72989417 51.00021596 -79.06444933 49.8379422 -77.39892578 48.67578125 C-67.91578136 42.05128468 -58.48371392 35.36163512 -49.125 28.5625 C-42.12019092 23.4768167 -35.02843296 18.53427064 -27.85107422 13.69506836 C-24.14296783 11.18795718 -20.49059379 8.64929422 -16.9375 5.92578125 C-16.31069336 5.45164795 -15.68388672 4.97751465 -15.03808594 4.48901367 C-13.88769559 3.61145621 -12.74907659 2.71813151 -11.62597656 1.8059082 C-7.48661751 -1.33125587 -4.93170951 -1.32626764 0 0 Z " fill="#FDFDFD" transform="translate(324,286)"/>
<path d="M0 0 C9.91134596 8.31042075 18.63093964 18.56733275 20.3125 31.8125 C21.09620101 40.96371642 19.74118134 48.31732971 16.3125 56.8125 C12.02326394 56.8125 10.50948417 54.73873282 7.4296875 51.9296875 C2.50962536 47.00962536 -1.27415355 41.64098965 -4.625 35.5625 C-8.22215001 29.4177663 -12.38360657 26.89713091 -19.04296875 24.7109375 C-25.30705689 23.23276371 -31.7249412 23.44396797 -38.125 23.4375 C-39.39666016 23.41300781 -40.66832031 23.38851562 -41.97851562 23.36328125 C-51.04725422 23.33507366 -56.92604974 24.74681764 -64.484375 29.61328125 C-67.28565987 32.40959931 -69.06131759 35.55797146 -70.9375 39 C-75.3062338 46.64505252 -80.37559719 54.13284865 -88.6875 57.8125 C-93.70552059 46.6359996 -95.76658263 36.06346686 -91.65234375 24.17578125 C-85.74941863 9.71719947 -74.91517123 -0.73326645 -60.6875 -7 C-40.97996187 -14.60290811 -17.31993423 -12.77946536 0 0 Z " fill="#656565" transform="translate(292.6875,130.1875)"/>
<path d="M0 0 C0.875 2.6875 0.875 2.6875 1 6 C-1.75 8.5 -1.75 8.5 -3.4296875 9.73828125 C-6.6262982 12.30670229 -7.77313829 15.3335467 -8.31640625 19.32421875 C-8.59813086 25.25861138 -7.88814798 30.34211714 -4 35 C-2.36383541 36.1088956 -0.69353953 37.16837887 1 38.1875 C6.59008434 41.77528805 7.5429901 45.3757074 9.0859375 51.6484375 C11.95365904 62.16341647 18.15730965 70.71697248 27.375 76.3125 C28.24898438 76.78300781 29.12296875 77.25351562 30.0234375 77.73828125 C32.86784981 80.99305344 32.35788223 83.75483022 32.16259766 87.94213867 C32.10894043 88.62123291 32.0552832 89.30032715 32 90 C3.84172028 95.84488971 3.84172028 95.84488971 -7.45373535 89.65545654 C-19.58254156 81.27514313 -36.494839 65.58564518 -40.58203125 50.91015625 C-41.18246157 46.09653688 -41.03020544 42.52891983 -39 38 C-32.51159994 29.8794764 -24.80923319 22.62297989 -17.46801758 15.28271484 C-15.53633923 13.34880906 -13.61285323 11.40697906 -11.68945312 9.46484375 C-10.46142511 8.23388836 -9.23292732 7.0034014 -8.00390625 5.7734375 C-7.42999649 5.19234222 -6.85608673 4.61124695 -6.26478577 4.01254272 C-2.22887562 0 -2.22887562 0 0 0 Z " fill="#DC6BE0" transform="translate(196,186)"/>
<path d="M0 0 C0.95158474 19.87754787 -3.35155037 35.96388075 -16.51953125 51.42578125 C-27.00756177 62.31020977 -42.30742474 69.9175841 -57.56323242 70.34057617 C-59.49404302 70.34011081 -61.42490339 70.32374482 -63.35546875 70.29296875 C-64.89694328 70.28660149 -64.89694328 70.28660149 -66.46955872 70.28010559 C-69.70915421 70.2634907 -72.94809677 70.22587183 -76.1875 70.1875 C-78.40168364 70.17243091 -80.61587716 70.15874643 -82.83007812 70.14648438 C-88.22026986 70.11364389 -93.61008826 70.06362005 -99 70 C-96.22303309 67.15545535 -93.51334993 64.47332552 -90.27734375 62.16015625 C-89.58439209 61.66185303 -88.89144043 61.1635498 -88.17749023 60.65014648 C-87.43829346 60.12622314 -86.69909668 59.6022998 -85.9375 59.0625 C-85.15383057 58.50183838 -84.37016113 57.94117676 -83.56274414 57.36352539 C-75.21703766 51.40772952 -66.80712371 45.54281284 -58.39892578 39.67578125 C-49.67519895 33.58177952 -40.98054432 27.44959328 -32.37158203 21.19433594 C-25.13884641 15.94073836 -17.85898 10.76311597 -10.5 5.6875 C-9.68031738 5.11781494 -8.86063477 4.54812988 -8.01611328 3.96118164 C-7.2579834 3.44160889 -6.49985352 2.92203613 -5.71875 2.38671875 C-5.04779297 1.92483154 -4.37683594 1.46294434 -3.68554688 0.98706055 C-2 0 -2 0 0 0 Z " fill="#FDFDFD" transform="translate(341,308)"/>
<path d="M0 0 C5.48542068 3.31998093 9.79235255 7.46996136 14.3203125 11.984375 C15.10139374 12.75879944 15.88247498 13.53322388 16.68722534 14.33111572 C18.33203171 15.96582823 19.97416343 17.60323578 21.61376953 19.24316406 C24.11328148 21.73830199 26.62834527 24.21700459 29.14453125 26.6953125 C30.7457714 28.29068393 32.34606379 29.8870073 33.9453125 31.484375 C34.69330109 32.21799255 35.44128967 32.95161011 36.21194458 33.7074585 C41.11896043 38.65754246 45.02616292 43.47452179 46.53125 50.46875 C46.43405036 56.78672668 44.77983841 62.06756902 40.36328125 66.7265625 C39.91339844 67.14679688 39.46351563 67.56703125 39 68 C35.92980886 66.60196653 33.57626301 64.91640298 31 62.75 C17.62114536 52.23960683 3.40424746 49.6054139 -13.25 49.3125 C-14.5924789 49.27922211 -15.93492811 49.24472338 -17.27734375 49.20898438 C-20.51814462 49.12738148 -23.7587047 49.05794888 -27 49 C-27.28995986 45.61995402 -27.42099324 42.37260882 -27 39 C-24.875 36.66015625 -24.875 36.66015625 -22 35.0625 C-10.5366048 27.75956483 -4.77551778 16.06592977 -1.61328125 3.22265625 C-1 1 -1 1 0 0 Z " fill="#DB6ADF" transform="translate(311,227)"/>
<path d="M0 0 C2.39380347 1.15321919 4.68557504 2.39611002 6.98828125 3.7265625 C8.08527344 4.35304687 9.18226563 4.97953125 10.3125 5.625 C11.94638672 6.57246094 11.94638672 6.57246094 13.61328125 7.5390625 C17.45680826 9.19705454 19.85715995 9.51905653 24 9 C26.49796672 7.61223567 26.49796672 7.61223567 28.5625 5.625 C34.17138893 0.62331189 39.48325098 -0.37369721 46.875 -0.3125 C47.58390381 -0.30686035 48.29280762 -0.3012207 49.02319336 -0.29541016 C57.26898699 -0.10371372 62.4217061 1.8028457 68.1640625 7.79296875 C70.93053499 9.61177726 72.73813264 9.39000588 76 9 C78.49875872 7.9593143 80.76190052 6.90564746 83.125 5.625 C84.03572266 5.14933594 84.03572266 5.14933594 84.96484375 4.6640625 C86.64753334 3.78422481 88.32400237 2.89251922 90 2 C91.33075607 1.32820353 92.66269863 0.65867083 94 0 C91.26578708 12.00449672 85.12459427 21.85966114 75 29 C61.81177718 36.63081449 47.64128753 39.92243243 32.5625 35.9375 C18.10672081 30.49769459 8.74074765 21.59116665 2.09375 7.76171875 C1.06361899 5.16063795 0.4417675 2.75602677 0 0 Z " fill="#656565" transform="translate(209,230)"/>
<path d="M0 0 C2.5 1.25 2.5 1.25 5 3 C5 4.32 5 5.64 5 7 C2.74014867 8.8442111 0.57345112 10.38091966 -1.875 11.9375 C-3.35822488 12.91707272 -4.83994217 13.89893118 -6.3203125 14.8828125 C-7.09407227 15.39360352 -7.86783203 15.90439453 -8.66503906 16.43066406 C-12.43039906 18.96137654 -16.08706039 21.63665785 -19.75 24.3125 C-28.62304664 30.76160081 -37.60568788 37.04746167 -46.60107422 43.32421875 C-56.08421407 49.94871213 -65.51642081 56.63818501 -74.875 63.4375 C-81.85674095 68.50830501 -88.94242336 73.40616285 -96.08300781 78.25 C-101.17291379 81.71492978 -106.17348985 85.27798913 -111.125 88.9375 C-111.7447168 89.38859131 -112.36443359 89.83968262 -113.00292969 90.30444336 C-115.52845648 92.14554274 -117.98369422 93.98609292 -120.36328125 96.015625 C-127.35302616 101.64954368 -134.36750987 100.4352516 -143 100 C-143 93.4 -143 86.8 -143 80 C-140.525 79.01 -140.525 79.01 -138 78 C-138.33 78.99 -138.66 79.98 -139 81 C-135.48692069 84.79792357 -133.04719515 86.42001922 -127.8125 86.75 C-120.82651486 86.37491355 -116.49103711 83.05650366 -111 79 C-109.71085524 78.0914631 -108.41901178 77.18674763 -107.125 76.28515625 C-103.47396039 73.73646205 -99.84367005 71.15978335 -96.21728516 68.57617188 C-94.0698284 67.04963798 -91.91709844 65.5309465 -89.76171875 64.015625 C-82.51030874 58.91703006 -75.2959595 53.77369902 -68.125 48.5625 C-61.92462359 44.0590758 -55.65285332 39.67893295 -49.3125 35.375 C-42.97291432 31.07121409 -36.73168787 26.66833548 -30.57714844 22.10424805 C-25.11007002 18.0556269 -19.55903837 14.13228423 -13.98388672 10.23413086 C-9.25026599 6.91576964 -4.60556566 3.49385096 0 0 Z " fill="#E1E4F5" transform="translate(335,293)"/>
<path d="M0 0 C17.99109568 -0.61644617 35.30780437 2.27343842 49 15 C59.08537989 24.83697152 64.85405647 35.11730617 65.375 49.25 C65.29575934 56.02507628 63.5193452 61.75787239 61 68 C56.02953235 68 53.40431309 64.36082734 50 61 C43.25262504 54.239942 43.25262504 54.239942 42.70703125 49.40234375 C42.77849809 47.56273432 42.87431844 45.72393873 42.9921875 43.88671875 C43.02182856 32.934348 36.02981329 22.15971458 28.875 14.3125 C20.46797618 6.52612895 11.45687181 1.82572049 0 1 C0 0.67 0 0.34 0 0 Z " fill="#585756" transform="translate(248,119)"/>
<path d="M0 0 C7.26523822 0.32289948 11.84198185 1.64460572 17 7.125 C18.76285675 9.65910658 20.31793596 12.21266253 21.875 14.875 C25.51743342 21.01250031 28.90868178 25.80622697 35.14453125 29.38671875 C37.90770848 31.43245947 38.86481876 32.47313747 39.72851562 35.83935547 C39.96978074 39.27944541 39.943782 42.61682326 39.8125 46.0625 C39.81830078 47.23361328 39.82410156 48.40472656 39.83007812 49.61132812 C39.67999753 58.09814357 39.67999753 58.09814357 36.60546875 62.17578125 C35.74566406 62.77777344 34.88585937 63.37976563 34 64 C33.175 64.70125 32.35 65.4025 31.5 66.125 C25 71 25 71 22 71 C22 60.77 22 50.54 22 40 C14.76981225 38.55396245 8.24655116 38.69933697 1 40 C0 39 0 39 -0.0625 36.4375 C-0.041875 35.633125 -0.02125 34.82875 0 34 C5.93891422 31.4084738 10.54107286 30.59631705 17 31 C13.98206553 26.32385978 10.89712089 21.81326684 7.375 17.5 C3.15597101 12.15839123 0 6.90752061 0 0 Z " fill="#F1B05A" transform="translate(265,160)"/>
<path d="M0 0 C0.33 0 0.66 0 1 0 C1 17.16 1 34.32 1 52 C10.24 52 19.48 52 29 52 C29 56.95 29 61.9 29 67 C25.10300813 67.13499972 21.21069347 67.2341331 17.3125 67.3125 C16.20970703 67.35439453 15.10691406 67.39628906 13.97070312 67.43945312 C12.3706543 67.46362305 12.3706543 67.46362305 10.73828125 67.48828125 C9.75899658 67.51446533 8.77971191 67.54064941 7.77075195 67.56762695 C5 67 5 67 2.171875 65.34765625 C-1.34122963 59.93267303 -0.61252431 54.22764074 -0.48828125 47.94921875 C-0.47894836 46.56632264 -0.47183449 45.18340993 -0.46684265 43.80049133 C-0.44780948 40.17180225 -0.3987432 36.54412396 -0.34332275 32.91583252 C-0.2920491 29.20900139 -0.26931147 25.50200589 -0.24414062 21.79492188 C-0.19061852 14.52948856 -0.1053533 7.26488625 0 0 Z " fill="#ECAD5A" transform="translate(156,326)"/>
<path d="M0 0 C0.66 0 1.32 0 2 0 C-0.73421292 12.00449672 -6.87540573 21.85966114 -17 29 C-23.99990198 33.05020102 -31.58682776 37.37615673 -39.875 37.125 C-41.04675781 37.09792969 -41.04675781 37.09792969 -42.2421875 37.0703125 C-43.11230469 37.03550781 -43.11230469 37.03550781 -44 37 C-42.27012553 35.84675035 -40.53821457 34.69651757 -38.80078125 33.5546875 C-31.17098812 28.40427769 -24.5753463 23.36536729 -20.4375 15 C-17.01152822 8.78142938 -11.44446536 6.51864485 -5.265625 3.59375 C-2.00460036 2.22149014 -2.00460036 2.22149014 0 0 Z " fill="#575655" transform="translate(301,230)"/>
<path d="M0 0 C7.80575195 -0.02312792 15.61149595 -0.04091738 23.41727352 -0.05181217 C27.0414596 -0.05704002 30.6656223 -0.06413587 34.28979492 -0.07543945 C37.78459975 -0.08627184 41.27938204 -0.09227758 44.77420235 -0.09487724 C46.76239389 -0.09763551 48.75057631 -0.10544688 50.73875427 -0.11329651 C51.93992386 -0.11337204 53.14109344 -0.11344757 54.37866211 -0.11352539 C55.97417152 -0.11685631 55.97417152 -0.11685631 57.60191345 -0.12025452 C60 0 60 0 61 1 C61.125 3.5 61.125 3.5 61 6 C59.25946868 7.74053132 56.86996997 7.1365843 54.50219727 7.14526367 C52.74015709 7.15483345 52.74015709 7.15483345 50.94252014 7.16459656 C49.02384377 7.16626579 49.02384377 7.16626579 47.06640625 7.16796875 C45.76299789 7.17129715 44.45958954 7.17462555 43.11668396 7.17805481 C40.35341565 7.184052 37.59017865 7.18589412 34.8269043 7.18530273 C31.28131527 7.18520109 27.73592643 7.19885231 24.19038486 7.21607494 C20.81572201 7.22985013 17.44109691 7.22928323 14.06640625 7.23046875 C12.7893129 7.23765427 11.51221954 7.24483978 10.19642639 7.25224304 C8.42965797 7.2476281 8.42965797 7.2476281 6.62719727 7.24291992 C5.06619041 7.24505745 5.06619041 7.24505745 3.47364807 7.24723816 C1 7 1 7 -1 5 C-0.625 2.375 -0.625 2.375 0 0 Z " fill="#191C1F" transform="translate(423,393)"/>
<path d="M0 0 C1.06367294 0.00222061 2.12734589 0.00444122 3.22325134 0.00672913 C5.02500572 0.00684242 5.02500572 0.00684242 6.86315918 0.00695801 C8.17042465 0.01211929 9.47769012 0.01728058 10.8245697 0.02259827 C12.16835477 0.02446253 13.51214052 0.02588639 14.85592651 0.02688599 C18.39873622 0.0307105 21.94150515 0.0405402 25.48429871 0.05158997 C29.09706572 0.06180552 32.7098393 0.06638392 36.32261658 0.07142639 C43.41573225 0.08216254 50.50882019 0.09923816 57.60191345 0.12025452 C58.22691345 2.49525452 58.22691345 2.49525452 58.60191345 5.12025452 C56.60191345 7.12025452 56.60191345 7.12025452 54.12826538 7.36749268 C53.08759415 7.36606766 52.04692291 7.36464264 50.97471619 7.36317444 C49.79687057 7.36625107 48.61902496 7.3693277 47.40548706 7.37249756 C46.12839371 7.36531204 44.85130035 7.35812653 43.5355072 7.35072327 C41.57895958 7.35003593 41.57895958 7.35003593 39.58288574 7.34933472 C36.82135197 7.34776984 34.05994783 7.33947919 31.29844666 7.32606506 C27.75171392 7.30905851 24.2051235 7.30525119 20.65835476 7.30601025 C17.28405303 7.30567362 13.90979838 7.2968399 10.5355072 7.28822327 C9.25638962 7.28711044 7.97727203 7.28599762 6.65939331 7.28485107 C5.48469986 7.27847122 4.31000641 7.27209137 3.09971619 7.26551819 C2.05984055 7.26170639 1.0199649 7.25789459 -0.05142212 7.25396729 C-2.39808655 7.12025452 -2.39808655 7.12025452 -3.39808655 6.12025452 C-3.52308655 3.62025452 -3.52308655 3.62025452 -3.39808655 1.12025452 C-2.39808655 0.12025452 -2.39808655 0.12025452 0 0 Z " fill="#191C1F" transform="translate(31.398086547851563,392.87974548339844)"/>
<path d="M0 0 C0.06058594 1.18078125 0.12117188 2.3615625 0.18359375 3.578125 C0.26802582 5.1354277 0.35267249 6.69271879 0.4375 8.25 C0.47681641 9.02730469 0.51613281 9.80460937 0.55664062 10.60546875 C0.59853516 11.35957031 0.64042969 12.11367188 0.68359375 12.890625 C0.72025146 13.58188477 0.75690918 14.27314453 0.79467773 14.98535156 C0.9878141 17.35620639 0.9878141 17.35620639 2 21 C-5.59 21 -13.18 21 -21 21 C-14.23829344 13.11134235 -14.23829344 13.11134235 -11.38671875 10.25390625 C-10.77892578 9.64482422 -10.17113281 9.03574219 -9.54492188 8.40820312 C-8.62549805 7.49458008 -8.62549805 7.49458008 -7.6875 6.5625 C-7.05521484 5.92634766 -6.42292969 5.29019531 -5.77148438 4.63476562 C-4.86946289 3.73467773 -4.86946289 3.73467773 -3.94921875 2.81640625 C-3.40612061 2.27443604 -2.86302246 1.73246582 -2.3034668 1.17407227 C-1 0 -1 0 0 0 Z " fill="#DC6AE0" transform="translate(149,372)"/>
<path d="M0 0 C1.89569509 0.23696189 3.79101642 0.47758634 5.68359375 0.73828125 C11.88060749 1.43844975 17.87190582 1.04307986 24 0 C24.33 1.65 24.66 3.3 25 5 C18.73331938 9.00371262 13.36217882 9.63766903 6 9 C2.4375 7.8125 2.4375 7.8125 0 6 C-0.9375 3.375 -0.9375 3.375 -1 1 C-0.67 0.67 -0.34 0.34 0 0 Z " fill="#1E2123" transform="translate(244,242)"/>
<path d="M0 0 C0.9075 0.495 1.815 0.99 2.75 1.5 C2.75 3.15 2.75 4.8 2.75 6.5 C-0.53696233 7.29953138 -1.96023192 7.59658936 -5.25 6.5 C-10.70821666 6.18058629 -15.87079331 6.53450136 -21.25 7.5 C-22.25 6.5 -22.25 6.5 -22.3125 3.9375 C-22.291875 3.133125 -22.27125 2.32875 -22.25 1.5 C-15.74745324 -2.83503117 -7.16069012 -3.06261696 0 0 Z " fill="#262623" transform="translate(244.25,192.5)"/>
<path d="M0 0 C0 1.65 0 3.3 0 5 C-3.28696233 5.79953138 -4.71023192 6.09658936 -8 5 C-13.45821666 4.68058629 -18.62079331 5.03450136 -24 6 C-25 5 -25 5 -25.0625 2.4375 C-25.041875 1.633125 -25.02125 0.82875 -25 0 C-15.71831073 -3.97786683 -9.28790833 -3.61196435 0 0 Z " fill="#232422" transform="translate(290,194)"/>
<path d="M0 0 C6 5 6 5 7 7 C7.40310513 11.83726155 7.47543282 14.09831707 5.1875 18.4375 C3 21 3 21 0 22 C0 14.74 0 7.48 0 0 Z " fill="#F9C273" transform="translate(311,197)"/>
<path d="M0 0 C0 7.26 0 14.52 0 22 C-4.26177203 19.86911399 -5.16379183 19.2232788 -7 15 C-7.94492618 8.49050855 -7.94492618 8.49050855 -5.6875 4.9296875 C-1.53618421 0 -1.53618421 0 0 0 Z " fill="#F8C273" transform="translate(201,197)"/>
<path d="M0 0 C0.99 0 1.98 0 3 0 C3 11.22 3 22.44 3 34 C2.01 34 1.02 34 0 34 C0 22.78 0 11.56 0 0 Z " fill="#FFFEFD" transform="translate(171,342)"/>
<path d="M0 0 C2.97 0 5.94 0 9 0 C9.625 2.375 9.625 2.375 10 5 C8 7 8 7 4.5 7.25 C1 7 1 7 -1 5 C-0.625 2.375 -0.625 2.375 0 0 Z " fill="#2A2925" transform="translate(273,204)"/>
<path d="M0 0 C7.75 -0.125 7.75 -0.125 10 1 C9.125 5.875 9.125 5.875 8 7 C4.5625 7.1875 4.5625 7.1875 1 7 C0.34 6.34 -0.32 5.68 -1 5 C-0.625 2.375 -0.625 2.375 0 0 Z " fill="#282724" transform="translate(230,204)"/>
<path d="M0 0 C0.66 0 1.32 0 2 0 C2 2.97 2 5.94 2 9 C1.01 9 0.02 9 -1 9 C-1.09765625 2.84765625 -1.09765625 2.84765625 -1 1 C-0.67 0.67 -0.34 0.34 0 0 Z " fill="#FFFAF4" transform="translate(172,325)"/>
</svg>
